<svg width="129" height="139" viewBox="0 0 129 139" fill="none" xmlns="http://www.w3.org/2000/svg">
<path d="M16.4615 41.2308C16.4615 36.8125 20.0433 33.2308 24.4615 33.2308H120.615C125.034 33.2308 128.615 36.8125 128.615 41.2308V98.4826C128.615 102.375 125.814 105.702 121.979 106.366L25.825 122.996C20.9342 123.842 16.4615 120.076 16.4615 115.113V41.2308Z" fill="#FC6849" fill-opacity="0.17"/>
<path d="M87.2483 57.0444H123.424V74.751H87.2483V57.0444Z" fill="#FB6771" fill-opacity="0.8"/>
<path d="M114.583 11.5093H37.2298V19.0318H114.615L114.583 11.5093Z" fill="#FD4A4A" fill-opacity="0.42"/>
<path d="M63.7765 90.5409H39.0829C39.0833 89.0092 39.6988 87.5405 40.7938 86.4574C41.8889 85.3744 43.374 84.7657 44.9227 84.7652H57.9367C59.4854 84.7655 60.9707 85.3741 62.0658 86.4572C63.1609 87.5402 63.7763 89.0091 63.7765 90.5409Z" fill="#6D7486"/>
<path d="M57.6913 28.106V28.2265L45.3638 33.8378H45.325L45.3269 22.4965H45.3638L57.6913 28.106Z" fill="#FC6849" fill-opacity="0.3"/>
<path d="M57.6913 28.2265L57.6894 39.9311H57.6673L45.325 34.3161V33.8378H45.3638L57.6913 28.2265Z" fill="#FD4A4A" fill-opacity="0.41"/>
<path d="M57.6894 39.9311V40.0224H57.6673L45.325 45.6373V34.3161L57.6673 39.9311H57.6894Z" fill="#FC6849" fill-opacity="0.3"/>
<path d="M57.6894 40.0224L57.6876 51.3473H57.6396L45.325 45.7414V45.6373L57.6673 40.0224H57.6894Z" fill="#FD4A4A" fill-opacity="0.41"/>
<path d="M57.6875 51.3473V51.4367H57.6396L45.3232 57.0426L45.325 45.7414L57.6396 51.3473H57.6875Z" fill="#FC6849" fill-opacity="0.3"/>
<path d="M57.6875 51.4367L57.6857 63.0044L45.3361 57.3821H45.3232V57.0426L57.6396 51.4367H57.6875Z" fill="#FD4A4A" fill-opacity="0.41"/>
<path d="M57.6857 63.1011L45.3361 68.7234H45.3232V57.3821H45.3361L57.6857 63.0044V63.1011Z" fill="#FC6849" fill-opacity="0.3"/>
<path d="M45.3361 68.7234L57.6857 63.1012L57.6839 74.8167H57.6396L45.3232 69.2127V68.7234H45.3361Z" fill="#FD4A4A" fill-opacity="0.41"/>
<path d="M57.6838 74.8167V74.908H57.6395L45.3213 80.5138L45.3232 69.2126L57.6395 74.8167H57.6838Z" fill="#FC6849" fill-opacity="0.3"/>
<path d="M57.6838 74.908L57.682 84.7652H45.3213V80.5138L57.6395 74.908H57.6838Z" fill="#FD4A4A" fill-opacity="0.41"/>
<path d="M57.682 2.92067L45.3139 11.4983V11.5093H45.301V11.5075L45.3213 2.92067H57.682Z" fill="#FD4A4A" fill-opacity="0.41"/>
<path d="M99.7991 19.0318H111.182V24.4606H99.7991V19.0318Z" fill="#FD4A4A" fill-opacity="0.42"/>
<path d="M57.6931 19.0318V19.0501L57.6912 28.106L45.3638 22.4965H45.3269V19.0318H57.6931Z" fill="#FD4A4A" fill-opacity="0.41"/>
<path d="M57.6894 11.4983V11.5093H45.314V11.4983L57.682 2.92067L57.6894 11.4983Z" fill="#FC6849" fill-opacity="0.3"/>
<path d="M87.2483 57.0444H92.7854V74.751H87.2483V57.0444Z" fill="#E75163"/>
<path d="M37.2298 11.5093H42.7669V19.0318H37.2298V11.5093Z" fill="#CB3E3E" fill-opacity="0.31"/>
<path d="M50.4598 84.7652H44.9227C43.374 84.7657 41.8889 85.3744 40.7938 86.4574C39.6988 87.5405 39.0833 89.0092 39.0829 90.5409H44.62C44.6205 89.0092 45.2359 87.5405 46.3309 86.4574C47.426 85.3744 48.9111 84.7657 50.4598 84.7652Z" fill="#B0B5CA"/>
<path d="M101.645 70.1874C101.939 70.1874 102.22 70.072 102.428 69.8666C102.636 69.6612 102.752 69.3827 102.752 69.0922V62.7032C102.752 62.4127 102.636 62.1341 102.428 61.9287C102.22 61.7233 101.939 61.608 101.645 61.608C101.351 61.608 101.069 61.7233 100.862 61.9287C100.654 62.1341 100.537 62.4127 100.537 62.7032V69.0922C100.537 69.3827 100.654 69.6612 100.862 69.8666C101.069 70.072 101.351 70.1874 101.645 70.1874Z" fill="#284268"/>
<path d="M94.262 70.1874C94.5557 70.1874 94.8374 70.072 95.0451 69.8666C95.2527 69.6612 95.3694 69.3827 95.3694 69.0922V62.7032C95.3694 62.4127 95.2527 62.1341 95.0451 61.9287C94.8374 61.7233 94.5557 61.608 94.262 61.608C93.9683 61.608 93.6866 61.7233 93.4789 61.9287C93.2712 62.1341 93.1546 62.4127 93.1546 62.7032V69.0922C93.1546 69.3827 93.2712 69.6612 93.4789 69.8666C93.6866 70.072 93.9683 70.1874 94.262 70.1874Z" fill="#284268"/>
<path d="M109.028 70.1874C109.321 70.1874 109.603 70.072 109.811 69.8666C110.018 69.6612 110.135 69.3827 110.135 69.0922V62.7032C110.135 62.4127 110.018 62.1341 109.811 61.9287C109.603 61.7233 109.321 61.608 109.028 61.608C108.734 61.608 108.452 61.7233 108.245 61.9287C108.037 62.1341 107.92 62.4127 107.92 62.7032V69.0922C107.92 69.3827 108.037 69.6612 108.245 69.8666C108.452 70.072 108.734 70.1874 109.028 70.1874Z" fill="#284268"/>
<path d="M116.41 70.1874C116.704 70.1874 116.986 70.072 117.193 69.8666C117.401 69.6612 117.518 69.3827 117.518 69.0922V62.7032C117.518 62.4127 117.401 62.1341 117.193 61.9287C116.986 61.7233 116.704 61.608 116.41 61.608C116.117 61.608 115.835 61.7233 115.627 61.9287C115.42 62.1341 115.303 62.4127 115.303 62.7032V69.0922C115.303 69.3827 115.42 69.6612 115.627 69.8666C115.835 70.072 116.117 70.1874 116.41 70.1874Z" fill="#284268"/>
<path d="M98.3724 14.2383H97.2963C97.0026 14.2383 96.7209 14.3537 96.5133 14.5591C96.3056 14.7645 96.1889 15.0431 96.1889 15.3335C96.1889 15.624 96.3056 15.9026 96.5133 16.108C96.7209 16.3134 97.0026 16.4288 97.2963 16.4288H98.3724C98.6661 16.4288 98.9478 16.3134 99.1554 16.108C99.3631 15.9026 99.4798 15.624 99.4798 15.3335C99.4798 15.0431 99.3631 14.7645 99.1554 14.5591C98.9478 14.3537 98.6661 14.2383 98.3724 14.2383Z" fill="#284268"/>
<path d="M93.9888 14.2383H70.4524C70.1587 14.2383 69.877 14.3537 69.6694 14.5591C69.4617 14.7645 69.345 15.0431 69.345 15.3335C69.345 15.624 69.4617 15.9026 69.6694 16.108C69.877 16.3134 70.1587 16.4288 70.4524 16.4288H93.9888C94.2825 16.4288 94.5642 16.3134 94.7719 16.108C94.9796 15.9026 95.0962 15.624 95.0962 15.3335C95.0962 15.0431 94.9796 14.7645 94.7719 14.5591C94.5642 14.3537 94.2825 14.2383 93.9888 14.2383Z" fill="#284268"/>
<path d="M124.526 56.9349C124.524 56.9148 124.52 56.8954 124.517 56.8759C124.515 56.8604 124.513 56.8449 124.51 56.8297C124.505 56.8071 124.499 56.7852 124.493 56.7631C124.49 56.7507 124.487 56.7383 124.483 56.7266C124.477 56.7065 124.47 56.6872 124.462 56.6676C124.457 56.6536 124.453 56.6393 124.447 56.6255C124.441 56.6116 124.431 56.5932 124.424 56.5771C124.416 56.561 124.409 56.544 124.4 56.5282C124.393 56.5152 124.385 56.5028 124.377 56.4902C124.366 56.4719 124.356 56.4537 124.344 56.4354C124.337 56.4249 124.329 56.415 124.321 56.4046C124.308 56.3863 124.294 56.3681 124.28 56.3498C124.269 56.3374 124.258 56.3261 124.247 56.3142C124.236 56.3024 124.221 56.2848 124.207 56.271C124.181 56.2454 124.154 56.2213 124.126 56.1979L124.124 56.1965L107.211 42.5423C107.896 42.3131 108.523 41.9396 109.048 41.4474C109.573 40.9553 109.984 40.3563 110.252 39.6918C110.362 39.4222 110.359 39.1205 110.244 38.853C110.129 38.5856 109.912 38.3743 109.639 38.2656C109.367 38.1569 109.061 38.1597 108.791 38.2735C108.521 38.3872 108.307 38.6026 108.197 38.8722C107.991 39.3864 107.633 39.8274 107.17 40.138C106.707 40.4486 106.161 40.6143 105.601 40.6138C104.852 40.6138 104.133 40.3193 103.603 39.7952C103.073 39.2711 102.775 38.5603 102.775 37.8191C102.775 37.0779 103.073 36.367 103.603 35.8429C104.133 35.3188 104.852 35.0243 105.601 35.0243C105.895 35.0243 106.177 34.909 106.384 34.7036C106.592 34.4982 106.709 34.2196 106.709 33.9291V25.5559H111.181C111.475 25.5559 111.756 25.4405 111.964 25.2351C112.172 25.0297 112.288 24.7511 112.288 24.4606V20.1271H114.614C114.76 20.1271 114.904 20.0986 115.039 20.0433C115.173 19.988 115.296 19.9069 115.399 19.8047C115.501 19.7025 115.583 19.5812 115.638 19.4478C115.694 19.3144 115.722 19.1715 115.721 19.0273L115.69 11.5047C115.688 11.2437 115.593 10.9918 115.42 10.7943C115.248 10.5969 115.009 10.4669 114.749 10.4277V10.4266L57.8474 1.83802V1.83911C57.7924 1.83051 57.7369 1.82593 57.6813 1.82542H45.3213C45.1694 1.82538 45.019 1.85639 44.8798 1.91651C44.7405 1.97664 44.6153 2.06457 44.512 2.17481L36.4195 10.7625C36.228 10.965 36.1218 11.232 36.1223 11.5093V19.0318C36.1223 19.3223 36.239 19.6009 36.4467 19.8063C36.6544 20.0117 36.9361 20.1271 37.2298 20.1271H44.2194L44.2139 83.7065C42.5034 83.8806 40.9189 84.6756 39.7667 85.938C38.6144 87.2003 37.9762 88.8402 37.9754 90.5409C37.9754 90.8313 38.0921 91.1099 38.2998 91.3153C38.5075 91.5207 38.7891 91.6361 39.0829 91.6361H63.7765C64.0702 91.6361 64.3519 91.5207 64.5596 91.3153C64.7673 91.1099 64.8839 90.8313 64.8839 90.5409C64.8817 88.8655 64.2613 87.2485 63.1392 85.9934C62.0172 84.7382 60.4706 83.9312 58.7896 83.7236L58.8003 20.1271H98.6917V24.4606C98.6917 24.7511 98.8084 25.0297 99.016 25.2351C99.2237 25.4405 99.5054 25.5559 99.7991 25.5559H104.495V32.9561C103.459 33.1928 102.525 33.7471 101.826 34.5398C101.127 35.3326 100.699 36.3233 100.604 37.3707C100.508 38.418 100.749 39.4685 101.293 40.3723C101.837 41.2761 102.655 41.9869 103.632 42.4034L86.5481 56.1959L86.5462 56.1976C86.5184 56.22 86.4918 56.2438 86.4665 56.269C86.451 56.2841 86.4371 56.3004 86.4227 56.3162C86.413 56.3272 86.4024 56.3374 86.393 56.3489C86.3779 56.3672 86.3644 56.3854 86.3506 56.4048C86.3434 56.4148 86.3354 56.4243 86.3284 56.4345C86.3164 56.4528 86.3059 56.471 86.295 56.4893C86.2875 56.5019 86.2795 56.5139 86.2725 56.5269C86.2638 56.5428 86.2564 56.5594 86.2487 56.5758C86.2409 56.5922 86.2326 56.6078 86.2256 56.6242C86.2186 56.6406 86.2153 56.6523 86.2101 56.6663C86.2029 56.6859 86.1952 56.7052 86.1891 56.7253C86.1852 56.7377 86.1826 56.7505 86.1793 56.7631C86.1734 56.7848 86.1671 56.8065 86.1627 56.829C86.1594 56.8451 86.1577 56.8613 86.1551 56.8774C86.1522 56.8956 86.1485 56.915 86.1466 56.9343C86.1429 56.9702 86.1411 57.0063 86.1411 57.0424V74.751C86.1411 75.0415 86.2578 75.32 86.4654 75.5254C86.6731 75.7308 86.9548 75.8462 87.2485 75.8462H123.424C123.718 75.8462 124 75.7308 124.207 75.5254C124.415 75.32 124.532 75.0415 124.532 74.751V57.0422C124.532 57.0064 124.53 56.9705 124.526 56.9349ZM99.9868 10.414H58.7959L58.7905 4.19592L99.9868 10.414ZM56.581 10.414H48.8064L56.5768 5.0252L56.581 10.414ZM46.4262 4.01593H54.1733L46.4134 9.39818L46.4262 4.01593ZM44.2065 5.70974L44.1955 10.414H39.7754L44.2065 5.70974ZM62.5382 89.4456H40.32C40.57 88.4243 41.1596 87.5157 41.9942 86.8655C42.8289 86.2154 43.8602 85.8614 44.9227 85.8605H57.9367C58.9989 85.8618 60.0299 86.216 60.8643 86.8661C61.6987 87.5162 62.2882 88.4246 62.5382 89.4456ZM55.175 28.1662L46.4332 32.1457V24.1892L55.175 28.1662ZM46.4341 21.7773V20.1271H56.5855L56.5844 26.3963L46.4341 21.7773ZM56.5838 29.9369L56.5823 38.2327L47.4683 34.0863L56.5838 29.9369ZM55.1174 39.9767L46.4323 43.928V36.0258L55.1174 39.9767ZM56.5818 41.7218L56.5805 49.6595L47.8599 45.6903L56.5818 41.7218ZM55.0888 51.392L46.4312 55.3325V47.4516L55.0888 51.392ZM56.5799 53.1247L56.5785 61.2947L47.6052 57.2087L56.5799 53.1247ZM55.1436 63.0528L46.4302 67.0196V59.0863L55.1436 63.0528ZM56.5779 64.8112L56.5766 73.1274L47.4404 68.9708L56.5779 64.8112ZM55.0905 74.8623L46.4293 78.8034V70.9211L55.0905 74.8623ZM56.5761 76.5978L56.5748 83.67H46.4288V81.2161L56.5761 76.5978ZM100.907 23.3654V20.1271H103.121C103.415 20.1271 103.697 20.0117 103.904 19.8063C104.112 19.6009 104.229 19.3223 104.229 19.0318C104.229 18.7414 104.112 18.4628 103.904 18.2574C103.697 18.052 103.415 17.9366 103.121 17.9366H38.3372V12.6045H113.48L113.503 17.9366H107.182C106.888 17.9366 106.607 18.052 106.399 18.2574C106.191 18.4628 106.075 18.7414 106.075 19.0318C106.075 19.3223 106.191 19.6009 106.399 19.8063C106.607 20.0117 106.888 20.1271 107.182 20.1271H110.074V23.3654H100.907ZM105.336 43.8548L120.316 55.9491H90.3561L105.336 43.8548ZM122.317 73.6557H88.3557V58.1396H122.317V73.6557Z" fill="#284268"/>
<g filter="url(#filter0_d)">
<circle cx="18.5385" cy="120.462" r="14.5385" fill="#FD4A4A"/>
</g>
<path d="M11.2692 120.462L16.1154 125.308L25.8077 115.615" stroke="#F9FAFA" stroke-width="2" stroke-linecap="round" stroke-linejoin="round"/>
<defs>
<filter id="filter0_d" x="0" y="101.923" width="37.0769" height="37.0769" filterUnits="userSpaceOnUse" color-interpolation-filters="sRGB">
<feFlood flood-opacity="0" result="BackgroundImageFix"/>
<feColorMatrix in="SourceAlpha" type="matrix" values="0 0 0 0 0 0 0 0 0 0 0 0 0 0 0 0 0 0 127 0"/>
<feMorphology radius="3" operator="dilate" in="SourceAlpha" result="effect1_dropShadow"/>
<feOffset/>
<feGaussianBlur stdDeviation="0.5"/>
<feColorMatrix type="matrix" values="0 0 0 0 0.992157 0 0 0 0 0.290196 0 0 0 0 0.290196 0 0 0 0.22 0"/>
<feBlend mode="normal" in2="BackgroundImageFix" result="effect1_dropShadow"/>
<feBlend mode="normal" in="SourceGraphic" in2="effect1_dropShadow" result="shape"/>
</filter>
</defs>
</svg>
