<svg width="210" height="132" viewBox="0 0 210 132" fill="none" xmlns="http://www.w3.org/2000/svg">
<g filter="url(#filter0_d)">
<rect x="32" y="32" width="146" height="68" rx="8" fill="white"/>
</g>
<g filter="url(#filter1_d)">
<circle cx="29.5385" cy="95.5385" r="14.5385" fill="#FD4A4A"/>
</g>
<path d="M22.2692 95.5384L27.1154 100.385L36.8077 90.6923" stroke="#F9FAFA" stroke-width="2" stroke-linecap="round" stroke-linejoin="round"/>
<path d="M93.248 53.288C93.248 53.8853 93.104 54.4453 92.816 54.968C92.5387 55.4907 92.096 55.912 91.488 56.232C90.8907 56.552 90.1333 56.712 89.216 56.712H87.344V61H85.104V49.832H89.216C90.08 49.832 90.816 49.9813 91.424 50.28C92.032 50.5787 92.4853 50.9893 92.784 51.512C93.0933 52.0347 93.248 52.6267 93.248 53.288ZM89.12 54.904C89.7387 54.904 90.1973 54.7653 90.496 54.488C90.7947 54.2 90.944 53.8 90.944 53.288C90.944 52.2 90.336 51.656 89.12 51.656H87.344V54.904H89.12ZM97.0784 53.512C97.3664 53.0427 97.7397 52.6747 98.1984 52.408C98.6677 52.1413 99.201 52.008 99.7984 52.008V54.36H99.2064C98.5024 54.36 97.969 54.5253 97.6064 54.856C97.2544 55.1867 97.0784 55.7627 97.0784 56.584V61H94.8384V52.136H97.0784V53.512ZM105.243 61.144C104.39 61.144 103.622 60.9573 102.939 60.584C102.256 60.2 101.718 59.6613 101.323 58.968C100.939 58.2747 100.747 57.4747 100.747 56.568C100.747 55.6613 100.944 54.8613 101.339 54.168C101.744 53.4747 102.294 52.9413 102.987 52.568C103.68 52.184 104.454 51.992 105.307 51.992C106.16 51.992 106.934 52.184 107.627 52.568C108.32 52.9413 108.864 53.4747 109.259 54.168C109.664 54.8613 109.867 55.6613 109.867 56.568C109.867 57.4747 109.659 58.2747 109.243 58.968C108.838 59.6613 108.283 60.2 107.579 60.584C106.886 60.9573 106.107 61.144 105.243 61.144ZM105.243 59.192C105.648 59.192 106.027 59.096 106.379 58.904C106.742 58.7013 107.03 58.4027 107.243 58.008C107.456 57.6133 107.563 57.1333 107.563 56.568C107.563 55.7253 107.339 55.08 106.891 54.632C106.454 54.1733 105.915 53.944 105.275 53.944C104.635 53.944 104.096 54.1733 103.659 54.632C103.232 55.08 103.019 55.7253 103.019 56.568C103.019 57.4107 103.227 58.0613 103.643 58.52C104.07 58.968 104.603 59.192 105.243 59.192ZM112.646 51.08C112.241 51.08 111.905 50.9573 111.638 50.712C111.382 50.456 111.254 50.1413 111.254 49.768C111.254 49.3947 111.382 49.0853 111.638 48.84C111.905 48.584 112.241 48.456 112.646 48.456C113.041 48.456 113.366 48.584 113.622 48.84C113.878 49.0853 114.006 49.3947 114.006 49.768C114.006 50.1413 113.878 50.456 113.622 50.712C113.366 50.9573 113.041 51.08 112.646 51.08ZM113.75 62.456C113.75 63.4373 113.505 64.1413 113.014 64.568C112.534 65.0053 111.841 65.224 110.934 65.224H109.942V63.32H110.582C110.924 63.32 111.164 63.2507 111.302 63.112C111.441 62.984 111.51 62.7707 111.51 62.472V52.136H113.75V62.456ZM124.203 56.376C124.203 56.696 124.182 56.984 124.139 57.24H117.659C117.713 57.88 117.937 58.3813 118.331 58.744C118.726 59.1067 119.211 59.288 119.787 59.288C120.619 59.288 121.211 58.9307 121.563 58.216H123.979C123.723 59.0693 123.233 59.7733 122.507 60.328C121.782 60.872 120.891 61.144 119.835 61.144C118.982 61.144 118.214 60.9573 117.531 60.584C116.859 60.2 116.331 59.6613 115.947 58.968C115.574 58.2747 115.387 57.4747 115.387 56.568C115.387 55.6507 115.574 54.8453 115.947 54.152C116.321 53.4587 116.843 52.9253 117.515 52.552C118.187 52.1787 118.961 51.992 119.835 51.992C120.678 51.992 121.43 52.1733 122.091 52.536C122.763 52.8987 123.281 53.416 123.643 54.088C124.017 54.7493 124.203 55.512 124.203 56.376ZM121.883 55.736C121.873 55.16 121.665 54.7013 121.259 54.36C120.854 54.008 120.358 53.832 119.771 53.832C119.217 53.832 118.747 54.0027 118.363 54.344C117.99 54.6747 117.761 55.1387 117.675 55.736H121.883ZM125.262 56.568C125.262 55.6507 125.449 54.8507 125.822 54.168C126.196 53.4747 126.713 52.9413 127.374 52.568C128.036 52.184 128.793 51.992 129.646 51.992C130.745 51.992 131.652 52.2693 132.366 52.824C133.092 53.368 133.577 54.136 133.822 55.128H131.406C131.278 54.744 131.06 54.4453 130.75 54.232C130.452 54.008 130.078 53.896 129.63 53.896C128.99 53.896 128.484 54.1307 128.11 54.6C127.737 55.0587 127.55 55.7147 127.55 56.568C127.55 57.4107 127.737 58.0667 128.11 58.536C128.484 58.9947 128.99 59.224 129.63 59.224C130.537 59.224 131.129 58.8187 131.406 58.008H133.822C133.577 58.968 133.092 59.7307 132.366 60.296C131.641 60.8613 130.734 61.144 129.646 61.144C128.793 61.144 128.036 60.9573 127.374 60.584C126.713 60.2 126.196 59.6667 125.822 58.984C125.449 58.2907 125.262 57.4853 125.262 56.568ZM138.071 53.976V58.264C138.071 58.5627 138.141 58.7813 138.279 58.92C138.429 59.048 138.674 59.112 139.015 59.112H140.055V61H138.647C136.759 61 135.815 60.0827 135.815 58.248V53.976H134.759V52.136H135.815V49.944H138.071V52.136H140.055V53.976H138.071Z" fill="#274052"/>
<path d="M56.904 78.408L52.44 89H51.304L55.816 78.504H49.416V77.544H56.904V78.408ZM60.7953 83.048C60.1339 82.8347 59.6273 82.4987 59.2753 82.04C58.9339 81.5813 58.7633 81.0267 58.7633 80.376C58.7633 79.8 58.9073 79.288 59.1953 78.84C59.4939 78.3813 59.9259 78.024 60.4913 77.768C61.0566 77.5013 61.7339 77.368 62.5233 77.368C63.3126 77.368 63.9899 77.5013 64.5553 77.768C65.1206 78.024 65.5473 78.3813 65.8353 78.84C66.1339 79.288 66.2833 79.8 66.2833 80.376C66.2833 81.016 66.1073 81.5707 65.7552 82.04C65.4139 82.5093 64.9126 82.8453 64.2513 83.048C64.9766 83.2293 65.5473 83.576 65.9633 84.088C66.3793 84.6 66.5873 85.224 66.5873 85.96C66.5873 86.6427 66.4166 87.24 66.0753 87.752C65.7446 88.2533 65.2699 88.6427 64.6513 88.92C64.0433 89.1973 63.3339 89.336 62.5233 89.336C61.7126 89.336 60.9979 89.1973 60.3793 88.92C59.7713 88.6427 59.2966 88.2533 58.9553 87.752C58.6246 87.24 58.4593 86.6427 58.4593 85.96C58.4593 85.224 58.6673 84.6 59.0833 84.088C59.4993 83.576 60.0699 83.2293 60.7953 83.048ZM65.1953 80.504C65.1953 79.8 64.9553 79.256 64.4753 78.872C63.9953 78.488 63.3446 78.296 62.5233 78.296C61.7019 78.296 61.0513 78.488 60.5713 78.872C60.0913 79.2453 59.8513 79.7893 59.8513 80.504C59.8513 81.1653 60.0966 81.6933 60.5873 82.088C61.0779 82.4827 61.7233 82.68 62.5233 82.68C63.3233 82.68 63.9686 82.4827 64.4593 82.088C64.9499 81.6933 65.1953 81.1653 65.1953 80.504ZM62.5233 83.544C61.6486 83.544 60.9339 83.7413 60.3793 84.136C59.8246 84.5307 59.5473 85.128 59.5473 85.928C59.5473 86.696 59.8139 87.2987 60.3473 87.736C60.8806 88.1733 61.6059 88.392 62.5233 88.392C63.4299 88.392 64.1499 88.1733 64.6833 87.736C65.2166 87.288 65.4833 86.6853 65.4833 85.928C65.4833 85.1387 65.2059 84.5467 64.6513 84.152C64.1073 83.7467 63.3979 83.544 62.5233 83.544ZM68.3316 88.12C70.2943 86.648 71.809 85.3307 72.8756 84.168C73.953 82.9947 74.4916 81.848 74.4916 80.728C74.4916 79.992 74.305 79.4053 73.9316 78.968C73.569 78.52 72.9716 78.296 72.1396 78.296C71.329 78.296 70.6996 78.552 70.2516 79.064C69.8143 79.5653 69.569 80.2373 69.5156 81.08H68.4276C68.4916 79.896 68.8543 78.9787 69.5156 78.328C70.1876 77.6667 71.0623 77.336 72.1396 77.336C73.1743 77.336 74.0116 77.6293 74.6516 78.216C75.2916 78.792 75.6116 79.6133 75.6116 80.68C75.6116 81.9707 75.073 83.224 73.9956 84.44C72.929 85.6453 71.6116 86.824 70.0436 87.976H75.9636V88.92H68.3316V88.12ZM79.1999 85.944C79.3172 86.6373 79.5839 87.1707 79.9999 87.544C80.4159 87.9173 80.9865 88.104 81.7119 88.104C82.7145 88.104 83.4559 87.7147 83.9359 86.936C84.4265 86.1467 84.6505 84.8453 84.6079 83.032C84.4052 83.6187 84.0159 84.0827 83.4399 84.424C82.8745 84.7547 82.2239 84.92 81.4879 84.92C80.3679 84.92 79.4665 84.584 78.7839 83.912C78.1119 83.24 77.7759 82.3067 77.7759 81.112C77.7759 80.3973 77.9145 79.752 78.1919 79.176C78.4692 78.6 78.8905 78.1467 79.4559 77.816C80.0212 77.4853 80.7145 77.32 81.5359 77.32C83.0505 77.32 84.1065 77.816 84.7039 78.808C85.3012 79.7893 85.5999 81.2027 85.5999 83.048C85.5999 85.0427 85.3012 86.5413 84.7039 87.544C84.1172 88.5467 83.1039 89.048 81.6639 89.048C80.6079 89.048 79.7865 88.7653 79.1999 88.2C78.6132 87.624 78.2665 86.872 78.1599 85.944H79.1999ZM81.6639 83.96C82.1652 83.96 82.6239 83.8587 83.0399 83.656C83.4665 83.4427 83.8079 83.1333 84.0639 82.728C84.3199 82.3227 84.4479 81.8373 84.4479 81.272C84.4479 80.3973 84.1972 79.6773 83.6959 79.112C83.2052 78.5467 82.4959 78.264 81.5679 78.264C80.7465 78.264 80.0852 78.52 79.5839 79.032C79.0932 79.544 78.8479 80.2267 78.8479 81.08C78.8479 81.976 79.0932 82.68 79.5839 83.192C80.0745 83.704 80.7679 83.96 81.6639 83.96ZM87.1679 78.536V77.528H89.8879V89H88.7519V78.536H87.1679ZM98.1184 82.2C98.4064 81.592 98.849 81.096 99.4464 80.712C100.054 80.328 100.769 80.136 101.59 80.136C102.39 80.136 103.105 80.3227 103.734 80.696C104.364 81.0587 104.854 81.5813 105.206 82.264C105.569 82.936 105.75 83.72 105.75 84.616C105.75 85.512 105.569 86.3013 105.206 86.984C104.854 87.6667 104.358 88.1947 103.718 88.568C103.089 88.9413 102.38 89.128 101.59 89.128C100.758 89.128 100.038 88.9413 99.4304 88.568C98.833 88.184 98.3957 87.688 98.1184 87.08V89H97.0144V77.16H98.1184V82.2ZM104.614 84.616C104.614 83.8907 104.47 83.2667 104.182 82.744C103.905 82.2107 103.521 81.8053 103.03 81.528C102.54 81.2507 101.985 81.112 101.366 81.112C100.769 81.112 100.22 81.256 99.7184 81.544C99.2277 81.832 98.8384 82.2427 98.5504 82.776C98.2624 83.3093 98.1184 83.928 98.1184 84.632C98.1184 85.336 98.2624 85.9547 98.5504 86.488C98.8384 87.0213 99.2277 87.432 99.7184 87.72C100.22 88.008 100.769 88.152 101.366 88.152C101.985 88.152 102.54 88.0133 103.03 87.736C103.521 87.448 103.905 87.0373 104.182 86.504C104.47 85.96 104.614 85.3307 104.614 84.616ZM115.379 80.264V89H114.259V87.464C114.003 88.008 113.609 88.424 113.075 88.712C112.542 89 111.945 89.144 111.283 89.144C110.238 89.144 109.385 88.824 108.723 88.184C108.062 87.5333 107.731 86.5947 107.731 85.368V80.264H108.835V85.24C108.835 86.1893 109.07 86.9147 109.539 87.416C110.019 87.9173 110.67 88.168 111.491 88.168C112.334 88.168 113.006 87.9013 113.507 87.368C114.009 86.8347 114.259 86.0507 114.259 85.016V80.264H115.379ZM118.496 78.616C118.272 78.616 118.08 78.536 117.92 78.376C117.76 78.216 117.68 78.0187 117.68 77.784C117.68 77.5493 117.76 77.3573 117.92 77.208C118.08 77.048 118.272 76.968 118.496 76.968C118.72 76.968 118.912 77.048 119.072 77.208C119.232 77.3573 119.312 77.5493 119.312 77.784C119.312 78.0187 119.232 78.216 119.072 78.376C118.912 78.536 118.72 78.616 118.496 78.616ZM119.056 80.264V89H117.936V80.264H119.056ZM122.713 77.16V89H121.593V77.16H122.713ZM124.737 84.616C124.737 83.72 124.918 82.936 125.281 82.264C125.643 81.5813 126.139 81.0587 126.769 80.696C127.409 80.3227 128.129 80.136 128.929 80.136C129.697 80.136 130.39 80.3227 131.009 80.696C131.627 81.0693 132.081 81.5547 132.369 82.152V77.16H133.489V89H132.369V87.048C132.102 87.656 131.665 88.1573 131.057 88.552C130.449 88.936 129.734 89.128 128.913 89.128C128.113 89.128 127.393 88.9413 126.753 88.568C126.123 88.1947 125.627 87.6667 125.265 86.984C124.913 86.3013 124.737 85.512 124.737 84.616ZM132.369 84.632C132.369 83.928 132.225 83.3093 131.937 82.776C131.649 82.2427 131.254 81.832 130.753 81.544C130.262 81.256 129.718 81.112 129.121 81.112C128.502 81.112 127.947 81.2507 127.457 81.528C126.966 81.8053 126.577 82.2107 126.289 82.744C126.011 83.2667 125.873 83.8907 125.873 84.616C125.873 85.3307 126.011 85.96 126.289 86.504C126.577 87.0373 126.966 87.448 127.457 87.736C127.947 88.0133 128.502 88.152 129.121 88.152C129.718 88.152 130.262 88.008 130.753 87.72C131.254 87.432 131.649 87.0213 131.937 86.488C132.225 85.9547 132.369 85.336 132.369 84.632ZM136.606 78.616C136.382 78.616 136.19 78.536 136.03 78.376C135.87 78.216 135.79 78.0187 135.79 77.784C135.79 77.5493 135.87 77.3573 136.03 77.208C136.19 77.048 136.382 76.968 136.606 76.968C136.83 76.968 137.022 77.048 137.182 77.208C137.342 77.3573 137.422 77.5493 137.422 77.784C137.422 78.0187 137.342 78.216 137.182 78.376C137.022 78.536 136.83 78.616 136.606 78.616ZM137.166 80.264V89H136.046V80.264H137.166ZM143.798 80.104C144.843 80.104 145.697 80.4293 146.358 81.08C147.019 81.72 147.35 82.6533 147.35 83.88V89H146.246V84.008C146.246 83.0587 146.006 82.3333 145.526 81.832C145.057 81.3307 144.411 81.08 143.59 81.08C142.747 81.08 142.075 81.3467 141.574 81.88C141.073 82.4133 140.822 83.1973 140.822 84.232V89H139.702V80.264H140.822V81.752C141.099 81.2187 141.499 80.8133 142.022 80.536C142.545 80.248 143.137 80.104 143.798 80.104ZM153.491 80.136C154.312 80.136 155.027 80.328 155.635 80.712C156.243 81.096 156.68 81.5813 156.947 82.168V80.264H158.067V89.224C158.067 90.024 157.891 90.7333 157.539 91.352C157.198 91.9707 156.718 92.4453 156.099 92.776C155.48 93.1173 154.776 93.288 153.987 93.288C152.867 93.288 151.934 93.0213 151.187 92.488C150.451 91.9547 149.992 91.2293 149.811 90.312H150.915C151.107 90.92 151.47 91.4053 152.003 91.768C152.547 92.1307 153.208 92.312 153.987 92.312C154.552 92.312 155.059 92.1893 155.507 91.944C155.955 91.7093 156.307 91.3573 156.563 90.888C156.819 90.4187 156.947 89.864 156.947 89.224V87.064C156.67 87.6613 156.227 88.1573 155.619 88.552C155.022 88.936 154.312 89.128 153.491 89.128C152.691 89.128 151.971 88.9413 151.331 88.568C150.702 88.1947 150.206 87.6667 149.843 86.984C149.491 86.3013 149.315 85.512 149.315 84.616C149.315 83.72 149.491 82.936 149.843 82.264C150.206 81.5813 150.702 81.0587 151.331 80.696C151.971 80.3227 152.691 80.136 153.491 80.136ZM156.947 84.632C156.947 83.928 156.803 83.3093 156.515 82.776C156.227 82.2427 155.832 81.832 155.331 81.544C154.84 81.256 154.296 81.112 153.699 81.112C153.08 81.112 152.526 81.2507 152.035 81.528C151.544 81.8053 151.155 82.2107 150.867 82.744C150.59 83.2667 150.451 83.8907 150.451 84.616C150.451 85.3307 150.59 85.96 150.867 86.504C151.155 87.0373 151.544 87.448 152.035 87.736C152.526 88.0133 153.08 88.152 153.699 88.152C154.296 88.152 154.84 88.008 155.331 87.72C155.832 87.432 156.227 87.0213 156.515 86.488C156.803 85.9547 156.947 85.336 156.947 84.632ZM163.632 89.128C162.629 89.128 161.808 88.8987 161.168 88.44C160.538 87.9707 160.186 87.336 160.112 86.536H161.264C161.317 87.0267 161.546 87.4267 161.952 87.736C162.368 88.0347 162.922 88.184 163.616 88.184C164.224 88.184 164.698 88.04 165.04 87.752C165.392 87.464 165.568 87.1067 165.568 86.68C165.568 86.3813 165.472 86.136 165.28 85.944C165.088 85.752 164.842 85.6027 164.544 85.496C164.256 85.3787 163.861 85.256 163.36 85.128C162.709 84.9573 162.181 84.7867 161.776 84.616C161.37 84.4453 161.024 84.1947 160.736 83.864C160.458 83.5227 160.32 83.0693 160.32 82.504C160.32 82.0773 160.448 81.6827 160.704 81.32C160.96 80.9573 161.322 80.6693 161.792 80.456C162.261 80.2427 162.794 80.136 163.392 80.136C164.33 80.136 165.088 80.376 165.664 80.856C166.24 81.3253 166.549 81.976 166.592 82.808H165.472C165.44 82.296 165.237 81.8853 164.864 81.576C164.501 81.256 164 81.096 163.36 81.096C162.794 81.096 162.336 81.2293 161.984 81.496C161.632 81.7627 161.456 82.0933 161.456 82.488C161.456 82.8293 161.557 83.112 161.76 83.336C161.973 83.5493 162.234 83.72 162.544 83.848C162.853 83.9653 163.269 84.0987 163.792 84.248C164.421 84.4187 164.922 84.584 165.296 84.744C165.669 84.904 165.989 85.1387 166.256 85.448C166.522 85.7573 166.661 86.168 166.672 86.68C166.672 87.1493 166.544 87.5707 166.288 87.944C166.032 88.3067 165.674 88.5947 165.216 88.808C164.757 89.0213 164.229 89.128 163.632 89.128Z" fill="#274052"/>
<path d="M58.6862 48.9131H55.6505C55.5265 48.9131 55.426 49.0009 55.426 49.109V51.1852C55.426 51.2933 55.5265 51.381 55.6505 51.381H58.6862C58.8102 51.381 58.9107 51.2933 58.9107 51.1852V49.109C58.9108 49.0009 58.8102 48.9131 58.6862 48.9131Z" fill="#FFE5E0"/>
<path d="M65.2112 64.4959H54.4462C54.3087 64.4959 54.1971 64.3986 54.1971 64.2786V50.5428C54.1971 50.4228 54.3087 50.3255 54.4462 50.3255H65.2112C65.3488 50.3255 65.4603 50.4228 65.4603 50.5428V64.2786C65.4603 64.3986 65.3488 64.4959 65.2112 64.4959Z" fill="#FC8087"/>
<path d="M63.602 59.0403H55.5979C55.5596 59.0403 55.5285 59.0132 55.5285 58.9798V57.9208C55.5285 57.8874 55.5595 57.8603 55.5979 57.8603H63.6021C63.6404 57.8603 63.6714 57.8874 63.6714 57.9208V58.9798C63.6714 59.0132 63.6403 59.0403 63.602 59.0403Z" fill="#274052"/>
<path d="M63.602 56.1721H55.5979C55.5596 56.1721 55.5285 56.145 55.5285 56.1116V55.0526C55.5285 55.0192 55.5595 54.9921 55.5979 54.9921H63.6021C63.6404 54.9921 63.6714 55.0192 63.6714 55.0526V56.1116C63.6714 56.145 63.6403 56.1721 63.602 56.1721Z" fill="#274052"/>
<path d="M63.602 53.3039H55.5979C55.5596 53.3039 55.5285 53.2768 55.5285 53.2434V52.1844C55.5285 52.151 55.5595 52.1239 55.5979 52.1239H63.6021C63.6404 52.1239 63.6714 52.151 63.6714 52.1844V53.2434C63.6714 53.2768 63.6403 53.3039 63.602 53.3039Z" fill="#274052"/>
<path d="M63.602 61.9086H55.5979C55.5596 61.9086 55.5285 61.8815 55.5285 61.8481V60.7891C55.5285 60.7557 55.5595 60.7286 55.5979 60.7286H63.6021C63.6404 60.7286 63.6714 60.7556 63.6714 60.7891V61.8481C63.6714 61.8815 63.6403 61.9086 63.602 61.9086Z" fill="#274052"/>
<path d="M71.2924 44.3165H60.5402V64.4961H71.2924V44.3165Z" fill="#FFE5E0"/>
<path d="M71.2929 44.3165H68.8276V64.4961H71.2929V44.3165Z" fill="#FEA5A3"/>
<path d="M71.775 44H59.9342C59.8647 44 59.8083 44.0491 59.8083 44.1098V45.0091C59.8083 45.0698 59.8647 45.1189 59.9342 45.1189H71.775C71.8445 45.1189 71.9009 45.0698 71.9009 45.0091V44.1098C71.9009 44.0491 71.8445 44 71.775 44Z" fill="#FC8087"/>
<path d="M63.5643 48.6051H61.9838C61.9247 48.6051 61.8767 48.5633 61.8767 48.5117V46.8571C61.8767 46.8055 61.9247 46.7637 61.9838 46.7637H63.5643C63.6234 46.7637 63.6714 46.8055 63.6714 46.8571V48.5117C63.6714 48.5633 63.6234 48.6051 63.5643 48.6051Z" fill="#274052"/>
<path d="M66.7069 48.6051H65.1263C65.0672 48.6051 65.0193 48.5633 65.0193 48.5117V46.8571C65.0193 46.8055 65.0672 46.7637 65.1263 46.7637H66.7069C66.766 46.7637 66.814 46.8055 66.814 46.8571V48.5117C66.814 48.5633 66.766 48.6051 66.7069 48.6051Z" fill="#274052"/>
<path d="M69.8495 48.6051H68.2689C68.2098 48.6051 68.1618 48.5633 68.1618 48.5117V46.8571C68.1618 46.8055 68.2098 46.7637 68.2689 46.7637H69.8495C69.9086 46.7637 69.9565 46.8055 69.9565 46.8571V48.5117C69.9565 48.5633 69.9086 48.6051 69.8495 48.6051Z" fill="#274052"/>
<path d="M63.5643 52.7139H61.9838C61.9247 52.7139 61.8767 52.6721 61.8767 52.6205V50.966C61.8767 50.9144 61.9247 50.8726 61.9838 50.8726H63.5643C63.6234 50.8726 63.6714 50.9144 63.6714 50.966V52.6205C63.6714 52.6721 63.6234 52.7139 63.5643 52.7139Z" fill="#274052"/>
<path d="M66.7069 52.7139H65.1263C65.0672 52.7139 65.0193 52.6721 65.0193 52.6205V50.966C65.0193 50.9144 65.0672 50.8726 65.1263 50.8726H66.7069C66.766 50.8726 66.814 50.9144 66.814 50.966V52.6205C66.814 52.6721 66.766 52.7139 66.7069 52.7139Z" fill="#274052"/>
<path d="M69.8495 52.7139H68.2689C68.2098 52.7139 68.1619 52.6721 68.1619 52.6205V50.966C68.1619 50.9144 68.2098 50.8726 68.2689 50.8726H69.8495C69.9086 50.8726 69.9565 50.9144 69.9565 50.966V52.6205C69.9565 52.6721 69.9086 52.7139 69.8495 52.7139Z" fill="#274052"/>
<path d="M63.5643 56.8228H61.9838C61.9247 56.8228 61.8767 56.7809 61.8767 56.7294V55.0748C61.8767 55.0232 61.9247 54.9814 61.9838 54.9814H63.5643C63.6234 54.9814 63.6714 55.0232 63.6714 55.0748V56.7294C63.6714 56.7809 63.6234 56.8228 63.5643 56.8228Z" fill="#274052"/>
<path d="M66.7069 56.8228H65.1263C65.0672 56.8228 65.0193 56.7809 65.0193 56.7294V55.0748C65.0193 55.0232 65.0672 54.9814 65.1263 54.9814H66.7069C66.766 54.9814 66.814 55.0232 66.814 55.0748V56.7294C66.814 56.7809 66.766 56.8228 66.7069 56.8228Z" fill="#274052"/>
<path d="M69.8495 56.8228H68.2689C68.2098 56.8228 68.1619 56.7809 68.1619 56.7294V55.0748C68.1619 55.0232 68.2098 54.9814 68.2689 54.9814H69.8495C69.9086 54.9814 69.9565 55.0232 69.9565 55.0748V56.7294C69.9565 56.7809 69.9086 56.8228 69.8495 56.8228Z" fill="#274052"/>
<path d="M66.7069 60.9316H65.1263C65.0672 60.9316 65.0193 60.8898 65.0193 60.8382V59.1836C65.0193 59.132 65.0672 59.0902 65.1263 59.0902H66.7069C66.766 59.0902 66.814 59.132 66.814 59.1836V60.8382C66.814 60.8898 66.766 60.9316 66.7069 60.9316Z" fill="#274052"/>
<path d="M63.5643 60.9316H61.9838C61.9247 60.9316 61.8767 60.8898 61.8767 60.8382V59.1836C61.8767 59.132 61.9247 59.0902 61.9838 59.0902H63.5643C63.6234 59.0902 63.6714 59.132 63.6714 59.1836V60.8382C63.6714 60.8898 63.6234 60.9316 63.5643 60.9316Z" fill="#274052"/>
<path d="M69.8495 60.9316H68.2689C68.2098 60.9316 68.1619 60.8898 68.1619 60.8382V59.1836C68.1619 59.132 68.2098 59.0902 68.2689 59.0902H69.8495C69.9086 59.0902 69.9565 59.132 69.9565 59.1836V60.8382C69.9565 60.8898 69.9086 60.9316 69.8495 60.9316Z" fill="#274052"/>
<path d="M73.0239 60.2038L67.6574 63.337L66.0581 63.2587L65.9955 62.7095C65.9023 61.892 65.1808 61.2359 64.2484 61.1208L59.9633 60.6904C58.9748 60.5684 58.023 60.2794 57.1613 59.8397C55.9848 59.2393 54.6463 58.9228 53.2833 58.9228H50.1937V65.0751L58.3592 67.7727C58.6677 67.8487 58.9918 67.8714 59.3086 67.8278C59.3105 67.8275 59.3124 67.8273 59.3143 67.827L67.535 66.7932C68.1683 66.705 68.7636 66.4723 69.2606 66.1186L74.5737 61.9498C75.0505 61.5804 75.1389 60.9597 74.7802 60.4997C74.3877 59.9965 73.603 59.8643 73.0239 60.2038Z" fill="#FED9A8"/>
<path d="M74.8503 60.602L69.5987 64.4585C69.1017 64.8121 68.2755 65.0448 67.6422 65.133L59.3143 65.6524C59.3124 65.6526 59.3105 65.6529 59.3086 65.6532C58.9919 65.6968 58.6677 65.6741 58.3592 65.5981L50.1937 62.9005V65.0751L58.3592 67.7726C58.5135 67.8106 58.6716 67.8353 58.8308 67.845C58.8706 67.8475 58.9105 67.8489 58.9504 67.8495C59.07 67.8511 59.1898 67.8441 59.3086 67.8277C59.3105 67.8274 59.3124 67.8272 59.3143 67.8269L67.535 66.7931C67.7329 66.7656 67.9271 66.7239 68.1157 66.6688C68.1535 66.6578 68.191 66.6463 68.2282 66.6342C68.4146 66.5738 68.595 66.5001 68.7677 66.414C68.8022 66.3967 68.8365 66.379 68.8704 66.3608C69.006 66.2879 69.1364 66.207 69.2606 66.1186L74.5738 61.9498C75.0162 61.6072 75.1235 61.0483 74.8503 60.602Z" fill="#F4C892"/>
<path d="M66.6808 63.2902L57.6349 62.9744C57.5917 62.9729 57.5497 62.9618 57.5128 62.9422L57.0323 62.6869C56.7986 62.5627 56.9239 62.2484 57.1955 62.2773L66.6808 63.2902Z" fill="#F4C892"/>
<path d="M51.235 67.1649H50.0126C49.4533 67.1649 49 66.7693 49 66.2815V58.3897C49 57.9018 49.4534 57.5063 50.0126 57.5063H51.235C51.7943 57.5063 52.2476 57.9019 52.2476 58.3897V66.2815C52.2476 66.7694 51.7942 67.1649 51.235 67.1649Z" fill="#2D5871"/>
<path d="M71.775 44H69.4356V45.1189H71.775C71.8445 45.1189 71.9008 45.0698 71.9008 45.0091V44.1098C71.9008 44.0491 71.8445 44 71.775 44Z" fill="#FFE5E0"/>
<path d="M51.235 57.5063H50.6238V67.165H51.235C51.7943 67.165 52.2476 66.7695 52.2476 66.2816V58.3897C52.2476 57.9018 51.7942 57.5063 51.235 57.5063Z" fill="#1D4859"/>
<defs>
<filter id="filter0_d" x="0" y="0" width="210" height="132" filterUnits="userSpaceOnUse" color-interpolation-filters="sRGB">
<feFlood flood-opacity="0" result="BackgroundImageFix"/>
<feColorMatrix in="SourceAlpha" type="matrix" values="0 0 0 0 0 0 0 0 0 0 0 0 0 0 0 0 0 0 127 0"/>
<feMorphology radius="8" operator="dilate" in="SourceAlpha" result="effect1_dropShadow"/>
<feOffset/>
<feGaussianBlur stdDeviation="12"/>
<feColorMatrix type="matrix" values="0 0 0 0 0.387784 0 0 0 0 0.387784 0 0 0 0 0.387784 0 0 0 0.09 0"/>
<feBlend mode="normal" in2="BackgroundImageFix" result="effect1_dropShadow"/>
<feBlend mode="normal" in="SourceGraphic" in2="effect1_dropShadow" result="shape"/>
</filter>
<filter id="filter1_d" x="11" y="77" width="37.0769" height="37.0769" filterUnits="userSpaceOnUse" color-interpolation-filters="sRGB">
<feFlood flood-opacity="0" result="BackgroundImageFix"/>
<feColorMatrix in="SourceAlpha" type="matrix" values="0 0 0 0 0 0 0 0 0 0 0 0 0 0 0 0 0 0 127 0"/>
<feMorphology radius="3" operator="dilate" in="SourceAlpha" result="effect1_dropShadow"/>
<feOffset/>
<feGaussianBlur stdDeviation="0.5"/>
<feColorMatrix type="matrix" values="0 0 0 0 0.992157 0 0 0 0 0.290196 0 0 0 0 0.290196 0 0 0 0.22 0"/>
<feBlend mode="normal" in2="BackgroundImageFix" result="effect1_dropShadow"/>
<feBlend mode="normal" in="SourceGraphic" in2="effect1_dropShadow" result="shape"/>
</filter>
</defs>
</svg>
