<svg width="210" height="132" viewBox="0 0 210 132" fill="none" xmlns="http://www.w3.org/2000/svg">
<g filter="url(#filter0_d)">
<rect x="32" y="32" width="146" height="68" rx="8" fill="white"/>
</g>
<g filter="url(#filter1_d)">
<circle cx="172.538" cy="40.5385" r="14.5385" fill="#FD4A4A"/>
</g>
<path d="M165.269 40.5385L170.115 45.3846L179.808 35.6923" stroke="#F9FAFA" stroke-width="2" stroke-linecap="round" stroke-linejoin="round"/>
<path d="M64.3935 46.8221C68.0004 46.8223 71.4596 48.0761 74.0101 50.3077C76.5607 52.5393 77.9938 55.566 77.9941 58.722V61.1515H50.7921V58.722C50.7925 55.5659 52.2257 52.5391 54.7764 50.3075C57.3271 48.0758 60.7864 46.8221 64.3935 46.8221Z" fill="#FFE5E0"/>
<path d="M64.4552 56.2649C63.7924 56.2648 63.154 56.0465 62.6669 55.6532C62.1798 55.26 61.8797 54.7208 61.8264 54.1427L61.0689 45.9159C61.0581 45.7992 61.0751 45.6818 61.1187 45.5712C61.1623 45.4605 61.2317 45.359 61.3223 45.273C61.413 45.1869 61.5231 45.1182 61.6456 45.0713C61.7682 45.0243 61.9005 45 62.0343 45H66.8758C67.0095 45 67.1419 45.0243 67.2644 45.0713C67.3869 45.1182 67.497 45.1869 67.5877 45.273C67.6784 45.359 67.7477 45.4605 67.7913 45.5712C67.835 45.6818 67.8519 45.7992 67.8411 45.9159L67.0836 54.1411C67.0308 54.7194 66.731 55.2591 66.2439 55.6526C65.7568 56.0462 65.1182 56.2648 64.4552 56.2649Z" fill="#E75163"/>
<path d="M72.0858 47.0618C72.2868 47.1105 72.4611 47.2209 72.5766 47.3728C72.6922 47.5247 72.7415 47.7079 72.7153 47.889L71.6847 55.0608C71.6569 55.253 71.5463 55.4287 71.3755 55.5519C71.2047 55.6752 70.9865 55.7367 70.7656 55.724L70.6522 55.7173C70.5331 55.7103 70.4169 55.682 70.3109 55.634C70.2049 55.5861 70.1113 55.5195 70.036 55.4384C69.9607 55.3574 69.9053 55.2637 69.8733 55.1631C69.8413 55.0625 69.8333 54.9572 69.8498 54.8537L70.9972 47.6886C71.0145 47.5818 71.0575 47.4794 71.1235 47.3883C71.1895 47.2972 71.2769 47.2194 71.3798 47.1602C71.4828 47.1009 71.599 47.0614 71.7207 47.0445C71.8425 47.0275 71.9669 47.0334 72.0858 47.0618Z" fill="#E75163"/>
<path d="M56.8226 47.0618C56.6216 47.1106 56.4474 47.2209 56.3318 47.3728C56.2162 47.5247 56.167 47.708 56.1931 47.889L57.2267 55.0608C57.2545 55.253 57.3651 55.4287 57.5359 55.5519C57.7067 55.6752 57.9249 55.7367 58.1458 55.724L58.2596 55.7173C58.3787 55.7103 58.4948 55.682 58.6008 55.634C58.7069 55.5861 58.8004 55.5195 58.8757 55.4384C58.951 55.3574 59.0064 55.2637 59.0384 55.1631C59.0705 55.0625 59.0785 54.9572 59.0619 54.8537L57.9149 47.6886C57.8978 47.5814 57.8547 47.4787 57.7885 47.3873C57.7223 47.2959 57.6345 47.2179 57.5311 47.1586C57.4277 47.0992 57.311 47.0599 57.1888 47.0432C57.0666 47.0266 56.9418 47.0329 56.8226 47.0618Z" fill="#E75163"/>
<path d="M78.5062 59.1079H50.4938C49.6688 59.1079 49 59.693 49 60.4148C49 61.1366 49.6688 61.7218 50.4938 61.7218H78.5062C79.3312 61.7218 80 61.1366 80 60.4148C80 59.693 79.3312 59.1079 78.5062 59.1079Z" fill="#E75163"/>
<path d="M108.032 47.832L104.912 59H102.272L100.176 51.048L97.984 59L95.36 59.016L92.352 47.832H94.752L96.72 56.504L98.992 47.832H101.488L103.632 56.456L105.616 47.832H108.032ZM113.431 59.144C112.577 59.144 111.809 58.9573 111.127 58.584C110.444 58.2 109.905 57.6613 109.511 56.968C109.127 56.2747 108.935 55.4747 108.935 54.568C108.935 53.6613 109.132 52.8613 109.527 52.168C109.932 51.4747 110.481 50.9413 111.175 50.568C111.868 50.184 112.641 49.992 113.495 49.992C114.348 49.992 115.121 50.184 115.815 50.568C116.508 50.9413 117.052 51.4747 117.447 52.168C117.852 52.8613 118.055 53.6613 118.055 54.568C118.055 55.4747 117.847 56.2747 117.431 56.968C117.025 57.6613 116.471 58.2 115.767 58.584C115.073 58.9573 114.295 59.144 113.431 59.144ZM113.431 57.192C113.836 57.192 114.215 57.096 114.567 56.904C114.929 56.7013 115.217 56.4027 115.431 56.008C115.644 55.6133 115.751 55.1333 115.751 54.568C115.751 53.7253 115.527 53.08 115.079 52.632C114.641 52.1733 114.103 51.944 113.463 51.944C112.823 51.944 112.284 52.1733 111.847 52.632C111.42 53.08 111.207 53.7253 111.207 54.568C111.207 55.4107 111.415 56.0613 111.831 56.52C112.257 56.968 112.791 57.192 113.431 57.192ZM121.938 51.512C122.226 51.0427 122.599 50.6747 123.058 50.408C123.527 50.1413 124.06 50.008 124.658 50.008V52.36H124.066C123.362 52.36 122.828 52.5253 122.466 52.856C122.114 53.1867 121.938 53.7627 121.938 54.584V59H119.698V50.136H121.938V51.512ZM131.415 59L128.407 55.224V59H126.167V47.16H128.407V53.896L131.383 50.136H134.295L130.391 54.584L134.327 59H131.415ZM143.75 54.376C143.75 54.696 143.729 54.984 143.686 55.24H137.206C137.26 55.88 137.484 56.3813 137.878 56.744C138.273 57.1067 138.758 57.288 139.334 57.288C140.166 57.288 140.758 56.9307 141.11 56.216H143.526C143.27 57.0693 142.78 57.7733 142.054 58.328C141.329 58.872 140.438 59.144 139.382 59.144C138.529 59.144 137.761 58.9573 137.078 58.584C136.406 58.2 135.878 57.6613 135.494 56.968C135.121 56.2747 134.934 55.4747 134.934 54.568C134.934 53.6507 135.121 52.8453 135.494 52.152C135.868 51.4587 136.39 50.9253 137.062 50.552C137.734 50.1787 138.508 49.992 139.382 49.992C140.225 49.992 140.977 50.1733 141.638 50.536C142.31 50.8987 142.828 51.416 143.19 52.088C143.564 52.7493 143.75 53.512 143.75 54.376ZM141.43 53.736C141.42 53.16 141.212 52.7013 140.806 52.36C140.401 52.008 139.905 51.832 139.318 51.832C138.764 51.832 138.294 52.0027 137.91 52.344C137.537 52.6747 137.308 53.1387 137.222 53.736H141.43ZM147.625 51.512C147.913 51.0427 148.287 50.6747 148.745 50.408C149.215 50.1413 149.748 50.008 150.345 50.008V52.36H149.753C149.049 52.36 148.516 52.5253 148.153 52.856C147.801 53.1867 147.625 53.7627 147.625 54.584V59H145.385V50.136H147.625V51.512Z" fill="#274052"/>
<path d="M49.496 74.536V73.528H52.216V85H51.08V74.536H49.496ZM54.7119 79.16C54.7119 77.3253 54.9945 75.9013 55.5599 74.888C56.1252 73.8747 57.1385 73.368 58.5999 73.368C60.0612 73.368 61.0745 73.8747 61.6399 74.888C62.2052 75.9013 62.4879 77.3253 62.4879 79.16C62.4879 81.0267 62.2052 82.472 61.6399 83.496C61.0745 84.52 60.0612 85.032 58.5999 85.032C57.1279 85.032 56.1092 84.52 55.5439 83.496C54.9892 82.472 54.7119 81.0267 54.7119 79.16ZM61.3839 79.16C61.3839 78.168 61.3145 77.3307 61.1759 76.648C61.0372 75.9653 60.7652 75.416 60.3599 75C59.9545 74.584 59.3679 74.376 58.5999 74.376C57.8319 74.376 57.2452 74.584 56.8399 75C56.4345 75.416 56.1625 75.9653 56.0239 76.648C55.8852 77.3307 55.8159 78.168 55.8159 79.16C55.8159 80.184 55.8852 81.0427 56.0239 81.736C56.1625 82.4187 56.4345 82.968 56.8399 83.384C57.2452 83.8 57.8319 84.008 58.5999 84.008C59.3679 84.008 59.9545 83.8 60.3599 83.384C60.7652 82.968 61.0372 82.4187 61.1759 81.736C61.3145 81.0427 61.3839 80.184 61.3839 79.16ZM64.5713 79.16C64.5713 77.3253 64.8539 75.9013 65.4193 74.888C65.9846 73.8747 66.9979 73.368 68.4593 73.368C69.9206 73.368 70.9339 73.8747 71.4993 74.888C72.0646 75.9013 72.3472 77.3253 72.3472 79.16C72.3472 81.0267 72.0646 82.472 71.4993 83.496C70.9339 84.52 69.9206 85.032 68.4593 85.032C66.9873 85.032 65.9686 84.52 65.4033 83.496C64.8486 82.472 64.5713 81.0267 64.5713 79.16ZM71.2433 79.16C71.2433 78.168 71.1739 77.3307 71.0353 76.648C70.8966 75.9653 70.6246 75.416 70.2193 75C69.8139 74.584 69.2273 74.376 68.4593 74.376C67.6913 74.376 67.1046 74.584 66.6993 75C66.2939 75.416 66.0219 75.9653 65.8832 76.648C65.7446 77.3307 65.6753 78.168 65.6753 79.16C65.6753 80.184 65.7446 81.0427 65.8832 81.736C66.0219 82.4187 66.2939 82.968 66.6993 83.384C67.1046 83.8 67.6913 84.008 68.4593 84.008C69.2273 84.008 69.8139 83.8 70.2193 83.384C70.6246 82.968 70.8966 82.4187 71.0353 81.736C71.1739 81.0427 71.2433 80.184 71.2433 79.16ZM74.4306 79.16C74.4306 77.3253 74.7133 75.9013 75.2786 74.888C75.844 73.8747 76.8573 73.368 78.3186 73.368C79.78 73.368 80.7933 73.8747 81.3586 74.888C81.924 75.9013 82.2066 77.3253 82.2066 79.16C82.2066 81.0267 81.924 82.472 81.3586 83.496C80.7933 84.52 79.78 85.032 78.3186 85.032C76.8466 85.032 75.828 84.52 75.2626 83.496C74.708 82.472 74.4306 81.0267 74.4306 79.16ZM81.1026 79.16C81.1026 78.168 81.0333 77.3307 80.8946 76.648C80.756 75.9653 80.484 75.416 80.0786 75C79.6733 74.584 79.0866 74.376 78.3186 74.376C77.5506 74.376 76.964 74.584 76.5586 75C76.1533 75.416 75.8813 75.9653 75.7426 76.648C75.604 77.3307 75.5346 78.168 75.5346 79.16C75.5346 80.184 75.604 81.0427 75.7426 81.736C75.8813 82.4187 76.1533 82.968 76.5586 83.384C76.964 83.8 77.5506 84.008 78.3186 84.008C79.0866 84.008 79.6733 83.8 80.0786 83.384C80.484 82.968 80.756 82.4187 80.8946 81.736C81.0333 81.0427 81.1026 80.184 81.1026 79.16ZM92.578 79.56H89.01V83.16H87.97V79.56H84.418V78.6H87.97V75H89.01V78.6H92.578V79.56ZM100.509 78.184C100.786 77.5973 101.224 77.112 101.821 76.728C102.429 76.3333 103.149 76.136 103.981 76.136C104.77 76.136 105.48 76.3227 106.109 76.696C106.749 77.0587 107.245 77.5813 107.597 78.264C107.96 78.936 108.141 79.72 108.141 80.616C108.141 81.512 107.96 82.3013 107.597 82.984C107.245 83.6667 106.749 84.1947 106.109 84.568C105.48 84.9413 104.77 85.128 103.981 85.128C103.16 85.128 102.445 84.936 101.837 84.552C101.229 84.1573 100.786 83.6667 100.509 83.08V89.128H99.405V76.264H100.509V78.184ZM107.005 80.616C107.005 79.8907 106.861 79.2667 106.573 78.744C106.296 78.2107 105.912 77.8053 105.421 77.528C104.93 77.2507 104.376 77.112 103.757 77.112C103.16 77.112 102.61 77.256 102.109 77.544C101.618 77.832 101.229 78.2427 100.941 78.776C100.653 79.3093 100.509 79.928 100.509 80.632C100.509 81.336 100.653 81.9547 100.941 82.488C101.229 83.0213 101.618 83.432 102.109 83.72C102.61 84.008 103.16 84.152 103.757 84.152C104.376 84.152 104.93 84.0133 105.421 83.736C105.912 83.448 106.296 83.0373 106.573 82.504C106.861 81.96 107.005 81.3307 107.005 80.616ZM118.106 80.184C118.106 80.568 118.095 80.8613 118.074 81.064H110.826C110.858 81.7253 111.018 82.2907 111.306 82.76C111.594 83.2293 111.973 83.5867 112.442 83.832C112.911 84.0667 113.423 84.184 113.978 84.184C114.703 84.184 115.311 84.008 115.802 83.656C116.303 83.304 116.634 82.8293 116.794 82.232H117.978C117.765 83.0853 117.306 83.784 116.602 84.328C115.909 84.8613 115.034 85.128 113.978 85.128C113.157 85.128 112.421 84.9467 111.77 84.584C111.119 84.2107 110.607 83.688 110.234 83.016C109.871 82.3333 109.69 81.5387 109.69 80.632C109.69 79.7253 109.871 78.9307 110.234 78.248C110.597 77.5653 111.103 77.0427 111.754 76.68C112.405 76.3173 113.146 76.136 113.978 76.136C114.81 76.136 115.535 76.3173 116.154 76.68C116.783 77.0427 117.263 77.5333 117.594 78.152C117.935 78.76 118.106 79.4373 118.106 80.184ZM116.97 80.152C116.981 79.5013 116.847 78.9467 116.57 78.488C116.303 78.0293 115.935 77.6827 115.466 77.448C114.997 77.2133 114.485 77.096 113.93 77.096C113.098 77.096 112.389 77.3627 111.802 77.896C111.215 78.4293 110.89 79.1813 110.826 80.152H116.97ZM123.979 85.128C123.158 85.128 122.416 84.9467 121.755 84.584C121.104 84.2107 120.587 83.688 120.203 83.016C119.83 82.3333 119.643 81.5387 119.643 80.632C119.643 79.7253 119.835 78.936 120.219 78.264C120.603 77.5813 121.126 77.0587 121.787 76.696C122.448 76.3227 123.19 76.136 124.011 76.136C124.832 76.136 125.574 76.3227 126.235 76.696C126.907 77.0587 127.43 77.5813 127.803 78.264C128.187 78.936 128.379 79.7253 128.379 80.632C128.379 81.528 128.187 82.3173 127.803 83C127.419 83.6827 126.891 84.2107 126.219 84.584C125.547 84.9467 124.8 85.128 123.979 85.128ZM123.979 84.152C124.555 84.152 125.088 84.024 125.579 83.768C126.07 83.5013 126.464 83.1067 126.763 82.584C127.072 82.0507 127.227 81.4 127.227 80.632C127.227 79.864 127.078 79.2187 126.779 78.696C126.48 78.1627 126.086 77.768 125.595 77.512C125.104 77.2453 124.571 77.112 123.995 77.112C123.419 77.112 122.886 77.2453 122.395 77.512C121.904 77.768 121.51 78.1627 121.211 78.696C120.923 79.2187 120.779 79.864 120.779 80.632C120.779 81.4 120.923 82.0507 121.211 82.584C121.51 83.1067 121.899 83.5013 122.379 83.768C122.87 84.024 123.403 84.152 123.979 84.152ZM131.525 78.184C131.802 77.5973 132.239 77.112 132.837 76.728C133.445 76.3333 134.165 76.136 134.997 76.136C135.786 76.136 136.495 76.3227 137.125 76.696C137.765 77.0587 138.261 77.5813 138.613 78.264C138.975 78.936 139.157 79.72 139.157 80.616C139.157 81.512 138.975 82.3013 138.613 82.984C138.261 83.6667 137.765 84.1947 137.125 84.568C136.495 84.9413 135.786 85.128 134.997 85.128C134.175 85.128 133.461 84.936 132.853 84.552C132.245 84.1573 131.802 83.6667 131.525 83.08V89.128H130.421V76.264H131.525V78.184ZM138.021 80.616C138.021 79.8907 137.877 79.2667 137.589 78.744C137.311 78.2107 136.927 77.8053 136.437 77.528C135.946 77.2507 135.391 77.112 134.773 77.112C134.175 77.112 133.626 77.256 133.125 77.544C132.634 77.832 132.245 78.2427 131.957 78.776C131.669 79.3093 131.525 79.928 131.525 80.632C131.525 81.336 131.669 81.9547 131.957 82.488C132.245 83.0213 132.634 83.432 133.125 83.72C133.626 84.008 134.175 84.152 134.773 84.152C135.391 84.152 135.946 84.0133 136.437 83.736C136.927 83.448 137.311 83.0373 137.589 82.504C137.877 81.96 138.021 81.3307 138.021 80.616ZM142.338 73.16V85H141.218V73.16H142.338ZM152.778 80.184C152.778 80.568 152.767 80.8613 152.746 81.064H145.498C145.53 81.7253 145.69 82.2907 145.978 82.76C146.266 83.2293 146.644 83.5867 147.114 83.832C147.583 84.0667 148.095 84.184 148.65 84.184C149.375 84.184 149.983 84.008 150.474 83.656C150.975 83.304 151.306 82.8293 151.466 82.232H152.65C152.436 83.0853 151.978 83.784 151.274 84.328C150.58 84.8613 149.706 85.128 148.65 85.128C147.828 85.128 147.092 84.9467 146.442 84.584C145.791 84.2107 145.279 83.688 144.906 83.016C144.543 82.3333 144.362 81.5387 144.362 80.632C144.362 79.7253 144.543 78.9307 144.906 78.248C145.268 77.5653 145.775 77.0427 146.426 76.68C147.076 76.3173 147.818 76.136 148.65 76.136C149.482 76.136 150.207 76.3173 150.826 76.68C151.455 77.0427 151.935 77.5333 152.266 78.152C152.607 78.76 152.778 79.4373 152.778 80.184ZM151.642 80.152C151.652 79.5013 151.519 78.9467 151.242 78.488C150.975 78.0293 150.607 77.6827 150.138 77.448C149.668 77.2133 149.156 77.096 148.602 77.096C147.77 77.096 147.06 77.3627 146.474 77.896C145.887 78.4293 145.562 79.1813 145.498 80.152H151.642Z" fill="#274052"/>
<defs>
<filter id="filter0_d" x="0" y="0" width="210" height="132" filterUnits="userSpaceOnUse" color-interpolation-filters="sRGB">
<feFlood flood-opacity="0" result="BackgroundImageFix"/>
<feColorMatrix in="SourceAlpha" type="matrix" values="0 0 0 0 0 0 0 0 0 0 0 0 0 0 0 0 0 0 127 0"/>
<feMorphology radius="8" operator="dilate" in="SourceAlpha" result="effect1_dropShadow"/>
<feOffset/>
<feGaussianBlur stdDeviation="12"/>
<feColorMatrix type="matrix" values="0 0 0 0 0.387784 0 0 0 0 0.387784 0 0 0 0 0.387784 0 0 0 0.09 0"/>
<feBlend mode="normal" in2="BackgroundImageFix" result="effect1_dropShadow"/>
<feBlend mode="normal" in="SourceGraphic" in2="effect1_dropShadow" result="shape"/>
</filter>
<filter id="filter1_d" x="154" y="22" width="37.0769" height="37.0769" filterUnits="userSpaceOnUse" color-interpolation-filters="sRGB">
<feFlood flood-opacity="0" result="BackgroundImageFix"/>
<feColorMatrix in="SourceAlpha" type="matrix" values="0 0 0 0 0 0 0 0 0 0 0 0 0 0 0 0 0 0 127 0"/>
<feMorphology radius="3" operator="dilate" in="SourceAlpha" result="effect1_dropShadow"/>
<feOffset/>
<feGaussianBlur stdDeviation="0.5"/>
<feColorMatrix type="matrix" values="0 0 0 0 0.992157 0 0 0 0 0.290196 0 0 0 0 0.290196 0 0 0 0.22 0"/>
<feBlend mode="normal" in2="BackgroundImageFix" result="effect1_dropShadow"/>
<feBlend mode="normal" in="SourceGraphic" in2="effect1_dropShadow" result="shape"/>
</filter>
</defs>
</svg>
