<svg width="760" height="463" viewBox="0 0 760 463" fill="none" xmlns="http://www.w3.org/2000/svg">
<path d="M66.1681 428.598C65.9771 427.668 65.1585 427 64.2089 427L47.3569 427C45.8416 427 44.8767 428.62 45.5981 429.952L59.6727 455.952C60.0223 456.598 60.6974 457 61.4316 457H69.5476C70.8139 457 71.7614 455.838 71.5067 454.598L66.1681 428.598Z" fill="#9FA3A7"/>
<path d="M42.8319 434.598C43.0229 433.668 43.8415 433 44.7911 433L61.6431 433C63.1584 433 64.1233 434.62 63.4019 435.952L49.3273 461.952C48.9777 462.598 48.3026 463 47.5684 463H39.4524C38.1861 463 37.2386 461.838 37.4933 460.598L42.8319 434.598Z" fill="#EAECED"/>
<path d="M695.832 428.598C696.023 427.668 696.842 427 697.791 427L714.643 427C716.158 427 717.123 428.62 716.402 429.952L702.327 455.952C701.978 456.598 701.303 457 700.568 457H692.452C691.186 457 690.239 455.838 690.493 454.598L695.832 428.598Z" fill="#9FA3A7"/>
<path d="M719.168 434.598C718.977 433.668 718.158 433 717.209 433L700.357 433C698.842 433 697.877 434.62 698.598 435.952L712.673 461.952C713.022 462.598 713.697 463 714.432 463H722.548C723.814 463 724.761 461.838 724.507 460.598L719.168 434.598Z" fill="#EAECED"/>
<rect width="760" height="435" rx="16" fill="#EAECED"/>
</svg>
