<svg width="900" height="300" viewBox="0 0 900 300" fill="none" xmlns="http://www.w3.org/2000/svg">
<path d="M-17 145.5C-7.66667 111.333 34 90.5 84.5 76.5C135 62.5 126 20.5 189.5 -1" stroke="#CB3E3E"/>
<path d="M-17 193.5C-7.66667 159.333 -8.5 128.787 75.5 105.5C159.5 82.2129 183 11 246.5 -10.5" stroke="#CB3E3E"/>
<path d="M-7 351C2.33333 316.833 -15.5 196 99.5 149.5C214.5 103 226 -15 289.5 -36.5" stroke="#CB3E3E"/>
<path d="M41 366.5C50.3333 332.333 30.5 253 147.5 165C264.5 77 238 -13 301.5 -34.5" stroke="#CB3E3E"/>
<path d="M64 329C73.3333 294.833 85.5 226.5 229.5 165.5C373.5 104.5 357.5 -9.5 421 -31" stroke="#CB3E3E"/>
<path d="M195 337.5C204.333 303.333 206 220.5 350 159.5C494 98.5 436.5 -30 500 -51.5" stroke="#CB3E3E"/>
<path d="M325 329C334.333 294.833 346.5 226.5 490.5 165.5C634.5 104.5 582 -39 645.5 -60.5" stroke="#CB3E3E"/>
<path d="M427 327C514 286 441.5 246 586.5 165.5C731.5 85 656.5 -18 779.5 -48" stroke="#CB3E3E"/>
<path d="M559 338.5C585 272 525 246 670 165.5C815 85 740 -18 863 -48" stroke="#CB3E3E"/>
<path d="M661 338.5C687 272 627 246 772 165.5C917 85 842 -18 965 -48" stroke="#CB3E3E"/>
<path d="M732 338.5C758 272 714 246 806.5 196C899 146 866.5 69.5 938.5 32.5" stroke="#CB3E3E"/>
<path d="M773 338.5C799 272 755 246 847.5 196C940 146 907.5 69.5 979.5 32.5" stroke="#CB3E3E"/>
<path d="M818 338.5C844 272 800 246 892.5 196C985 146 952.5 69.5 1024.5 32.5" stroke="#CB3E3E"/>
<path d="M846 376C872 309.5 828 283.5 920.5 233.5C1013 183.5 980.5 107 1052.5 70" stroke="#CB3E3E"/>
<path d="M-12 141C-2.66667 106.833 -12 72 51 54C114 36 109 -29 176 -29" stroke="#CB3E3E"/>
<path d="M-32 132C-22.6667 97.8333 -32 63 31 45C94 27 89 -38 156 -38" stroke="#CB3E3E"/>
<path d="M-69 132C-59.6667 97.8333 -69 63 -6 45C57 27 52 -38 119 -38" stroke="#CB3E3E"/>
</svg>
