<svg width="72" height="72" viewBox="0 0 72 72" fill="none" xmlns="http://www.w3.org/2000/svg">
<g clip-path="url(#clip0)">
<path d="M63.708 50.811C63.3131 50.6473 62.8586 50.7378 62.5563 51.04L51.0073 62.589C50.7051 62.8913 50.6147 63.3458 50.7784 63.7407C50.9418 64.1357 51.3274 64.393 51.7547 64.393H63.3037C63.8875 64.393 64.3605 63.92 64.3605 63.3362V51.7872C64.3604 51.3599 64.1029 50.9746 63.708 50.811ZM54.3057 62.2796L62.2466 54.3386V62.2796H54.3057Z" fill="#FD4A4A"/>
<path d="M71.3478 33.872C70.9529 33.7083 70.4984 33.7988 70.1961 34.101L67.031 37.266V15.746C67.031 15.1623 66.5578 14.6892 65.9742 14.6892H57.8544L60.8019 11.7417C60.8023 11.7413 60.8027 11.7407 60.8031 11.7403L63.6432 8.90022C64.2517 8.29173 64.5868 7.48229 64.5868 6.62167C64.5868 5.76104 64.2517 4.95188 63.6432 4.34311L60.359 1.05895C59.7506 0.450466 58.9411 0.115356 58.0805 0.115356C57.2199 0.115356 56.4106 0.450466 55.8019 1.05895L52.9605 3.90043L49.527 7.33393L42.1718 14.6891H9.36846V4.23427C9.36846 3.65054 8.89525 3.17747 8.31166 3.17747C3.72868 3.17775 0 6.90615 0 11.4894V56.375C0 56.4531 0.00900002 56.529 0.0250313 56.6021C0.171 58.5468 1.01236 60.3537 2.41847 61.7254C3.92148 63.1913 5.90556 63.9986 8.00537 63.9986H40.2983L34.2164 70.0805C33.9142 70.3829 33.8238 70.8372 33.9873 71.2322C34.1508 71.6271 34.5363 71.8846 34.9637 71.8846H70.9433C71.5269 71.8846 72.0001 71.4115 72.0001 70.8278V34.8484C72.0001 34.421 71.7425 34.0356 71.3478 33.872ZM57.2968 2.55366C57.7288 2.12138 58.4326 2.12138 58.8646 2.55366L62.1489 5.83796C62.5812 6.2701 62.5812 6.97365 62.1489 7.40593L60.0549 9.50012L55.2025 4.64785L57.2968 2.55366ZM53.7079 6.14242L58.5602 10.9945L56.6211 12.9336L51.7691 8.0815L53.7079 6.14242ZM69.8868 46.7231H67.9371C67.3533 46.7231 66.8803 47.1961 66.8803 47.7799C66.8803 48.3636 67.3533 48.8367 67.9371 48.8367H69.8868V52.0213H67.9371C67.3533 52.0213 66.8803 52.4943 66.8803 53.0781C66.8803 53.6618 67.3533 54.1349 67.9371 54.1349H69.8868V57.3193H67.9371C67.3533 57.3193 66.8803 57.7924 66.8803 58.3761C66.8803 58.9599 67.3533 59.4329 67.9371 59.4329H69.8868V62.6175H67.9371C67.3533 62.6175 66.8803 63.0907 66.8803 63.6743C66.8803 64.2581 67.3533 64.7311 67.9371 64.7311H69.8868V69.7714H37.5149L48.1895 59.097C48.6022 58.6841 48.6022 58.0151 48.1895 57.6024C48.1421 57.555 48.0912 57.5139 48.0379 57.4774C47.6264 57.1956 47.0602 57.2371 46.6948 57.6024L42.4119 61.8853H8.00552C4.80038 61.8853 2.22019 59.383 2.11866 56.1836C2.12471 55.9828 2.14032 55.7837 2.16535 55.5868C2.16549 55.5857 2.16563 55.5846 2.16577 55.5834C2.17758 55.4899 2.19179 55.3968 2.20796 55.3043C2.20979 55.2938 2.21175 55.2832 2.21358 55.2727C2.22835 55.1901 2.24494 55.108 2.26308 55.0261C2.26815 55.0034 2.27349 54.9806 2.27883 54.9579C2.29486 54.8888 2.31216 54.82 2.33072 54.7515C2.34085 54.7144 2.3514 54.6777 2.36222 54.6407C2.37769 54.587 2.39372 54.5334 2.41074 54.4804C2.42775 54.4274 2.4459 54.3749 2.46432 54.3225C2.47711 54.2858 2.48977 54.2491 2.50355 54.2126C2.52929 54.1434 2.55657 54.075 2.58469 54.007C2.59271 53.9875 2.60058 53.9677 2.60888 53.9481C2.64502 53.8637 2.68257 53.7803 2.72222 53.6979C2.72391 53.6944 2.72546 53.6909 2.72715 53.6874C3.55374 51.9768 5.14351 50.7015 7.05137 50.3058C7.05672 50.3047 7.06206 50.3034 7.0674 50.3023C7.15487 50.2844 7.24319 50.2691 7.33206 50.2549C7.34683 50.2525 7.36159 50.2495 7.37664 50.2473C7.45694 50.235 7.53808 50.2255 7.61922 50.2163C7.642 50.2138 7.66464 50.2103 7.68756 50.208C7.76589 50.2002 7.84492 50.195 7.92395 50.19C7.94898 50.1885 7.97402 50.1858 7.99905 50.1846C8.10255 50.1794 8.20689 50.1767 8.31166 50.1767C8.89525 50.1767 9.36846 49.7036 9.36846 49.1199V41.4574C9.36846 40.8736 8.89525 40.4006 8.31166 40.4006C7.72806 40.4006 7.25486 40.8736 7.25486 41.4574V48.1296C5.47032 48.3553 3.8139 49.1512 2.50777 50.4267C2.37038 50.5609 2.24016 50.7004 2.11332 50.8421V11.4894C2.11332 8.43208 4.33885 5.88437 7.25472 5.38121V15.746V37.2303V37.2304C7.25472 37.814 7.72792 38.2872 8.31152 38.2872C8.89511 38.2872 9.36832 37.814 9.36832 37.2304V37.2303V16.8028H40.0584L34.2162 22.6449C33.8035 23.0578 33.8035 23.7268 34.2162 24.1395C34.629 24.5521 35.2981 24.5521 35.7107 24.1395L43.3569 16.4933C43.3572 16.493 43.3573 16.4927 43.3576 16.4926L50.2742 9.57592L55.1262 14.4282L54.557 14.9974C54.5566 14.9979 54.556 14.9983 54.5556 14.9987L33.2469 36.3077L28.3948 31.4555L32.595 27.2553C33.0077 26.8425 33.0077 26.1735 32.595 25.7608C32.1822 25.3482 31.5131 25.3482 31.1005 25.7608L26.1529 30.7082C26.1265 30.7347 26.1017 30.7627 26.0785 30.7914C26.0708 30.8009 26.0639 30.8112 26.0566 30.8212C26.0417 30.841 26.0271 30.861 26.0134 30.8818C26.0057 30.8939 25.9987 30.9062 25.9913 30.9188C25.9797 30.9384 25.9684 30.9584 25.9582 30.9788C25.9514 30.992 25.9454 31.0054 25.9392 31.0192C25.9298 31.0398 25.921 31.0609 25.913 31.082C25.9102 31.0895 25.9066 31.0965 25.9039 31.104L23.845 36.9364L22.4413 40.9131C22.4227 40.966 22.4093 41.0197 22.3994 41.0739H18.8849C18.3013 41.0739 17.8281 41.5469 17.8281 42.1307C17.8281 42.7144 18.3013 43.1875 18.8849 43.1875H48.1509C48.7347 43.1875 49.2077 42.7144 49.2077 42.1307C49.2077 41.5469 48.7347 41.0739 48.1509 41.0739H27.1538L33.5986 38.7988C33.604 38.7969 33.609 38.7942 33.6144 38.7922C33.6394 38.7829 33.664 38.7725 33.6883 38.7614C33.698 38.7569 33.7077 38.7527 33.7172 38.7481C33.7425 38.7354 33.7674 38.7215 33.7918 38.7066C33.7997 38.7018 33.8079 38.6974 33.8156 38.6925C33.8411 38.6762 33.8658 38.6584 33.8901 38.6395C33.8962 38.6349 33.9025 38.6308 33.9084 38.626C33.9378 38.6024 33.9666 38.5769 33.9939 38.5496L55.7408 16.8029H64.9173V39.3798L49.8006 54.4966C49.3879 54.9094 49.3879 55.5784 49.8006 55.9911C49.8264 56.0168 49.8532 56.041 49.8809 56.0637C50.0747 56.2216 50.3114 56.3006 50.5479 56.3006C50.7844 56.3006 51.0212 56.2216 51.2149 56.0637C51.2426 56.0412 51.2694 56.0168 51.2952 55.9911C51.2956 55.9907 51.2952 55.9911 51.2956 55.9907L69.8868 37.3993V46.7231ZM31.314 37.3636L28.2869 38.4322L26.2701 36.4154L27.3387 33.3883L31.314 37.3636Z" fill="#274052"/>
</g>
<defs>
<clipPath id="clip0">
<rect width="72" height="72" fill="white"/>
</clipPath>
</defs>
</svg>
