<svg width="72" height="72" viewBox="0 0 72 72" fill="none" xmlns="http://www.w3.org/2000/svg">
<path d="M36 32.3956C37.2025 32.3956 38.3249 31.7479 38.9295 30.705C39.2216 30.2012 39.0499 29.5559 38.5459 29.2638C38.042 28.9716 37.3967 29.1433 37.1045 29.6473C36.8761 30.0414 36.4528 30.2863 36 30.2863C35.5472 30.2863 35.124 30.0414 34.8955 29.6473C34.6034 29.1431 33.9583 28.9714 33.4541 29.2638C32.9503 29.5559 32.7784 30.2012 33.0705 30.705C33.675 31.7479 34.7975 32.3956 36 32.3956Z" fill="#274052"/>
<path d="M31.3407 26.5712C31.9232 26.5712 32.3954 26.0991 32.3954 25.5165V24.3517C32.3954 23.7691 31.9232 23.297 31.3407 23.297C30.7582 23.297 30.286 23.7691 30.286 24.3517V25.5165C30.286 26.0991 30.7582 26.5712 31.3407 26.5712Z" fill="#274052"/>
<path d="M40.6593 26.5712C41.2418 26.5712 41.714 26.0991 41.714 25.5165V24.3517C41.714 23.7691 41.2418 23.297 40.6593 23.297C40.0768 23.297 39.6046 23.7691 39.6046 24.3517V25.5165C39.6046 26.0991 40.0768 26.5712 40.6593 26.5712Z" fill="#274052"/>
<path d="M66.4453 55.9125H65.0109V45.3187V45.3186C65.0108 42.168 62.4475 39.6047 59.2969 39.6047H53.4725C52.2487 39.6047 51.253 40.6003 51.253 41.8242V44.264H49.7585C49.176 44.264 48.7038 44.7361 48.7038 45.3187C48.7038 45.9013 49.176 46.3734 49.7585 46.3734H62.9016V56.0595C61.5538 56.4764 60.5718 57.7342 60.5718 59.2172V69.8203C60.5718 69.8441 60.5746 69.867 60.5753 69.8907H21.8018C21.2193 69.8907 20.7471 70.3627 20.7471 70.9453C20.7471 71.528 21.2193 72 21.8018 72H68.6953C70.5175 72 72 70.5176 72 68.6953V61.4672C72 58.4043 69.5081 55.9125 66.4453 55.9125ZM53.3624 41.8242C53.3624 41.7634 53.4119 41.7141 53.4725 41.7141H59.2969C60.9176 41.7141 62.2917 42.7894 62.7438 44.264H53.3624V41.8242ZM69.8906 68.6953C69.8906 69.3543 69.3544 69.8907 68.6953 69.8907H62.7915H62.7517C62.7128 69.8907 62.6814 69.859 62.6814 69.8203V67.3406H66.2859C66.8683 67.3406 67.3405 66.8685 67.3405 66.2859C67.3405 65.7033 66.8683 65.2312 66.2859 65.2312H62.6814V62.6812H66.2859C66.8683 62.6812 67.3405 62.2092 67.3405 61.6265C67.3405 61.0439 66.8683 60.5719 66.2859 60.5719H62.6814V59.2172C62.6814 58.5581 63.2176 58.0219 63.8767 58.0219H66.4453C68.345 58.0219 69.8906 59.5674 69.8906 61.4672V68.6953Z" fill="#FD4A4A"/>
<path d="M45.5396 46.3733C46.122 46.3733 46.5943 45.9013 46.5943 45.3187C46.5943 44.736 46.122 44.264 45.5396 44.264H44.0436V38.836C46.631 36.7137 48.368 33.5917 48.6589 30.0656H49.978C51.8442 30.0656 53.3624 28.5474 53.3624 26.6813V22.0219C53.3624 21.294 53.1307 20.6196 52.738 20.0669C53.1236 19.6674 53.3624 19.1251 53.3624 18.5273V17.3625C53.3624 15.4963 51.8442 13.9783 49.978 13.9783H49.8679V9.20869C49.8679 5.41547 46.782 2.32959 42.9889 2.32959H39.9666V2.17969C39.9666 0.977766 38.9888 0 37.7869 0H34.2127C33.0107 0 32.033 0.977766 32.033 2.17969V2.32945H29.0108C25.2177 2.32945 22.1317 5.41533 22.1317 9.20855L22.1318 13.9781H22.0219C20.1558 13.9781 18.6376 15.4963 18.6376 17.3624V18.5272C18.6376 19.125 18.8762 19.6673 19.262 20.0668C18.8695 20.6194 18.6376 21.2937 18.6376 22.0216V26.6811C18.6376 28.5473 20.1558 30.0655 22.0219 30.0655H23.3412C23.6323 33.5912 25.369 36.7131 27.9561 38.8353V44.2637H20.747V41.8238C20.747 40.6 19.7513 39.6044 18.5275 39.6044H12.7031C9.55237 39.6044 6.9892 42.1675 6.98906 45.3182V45.3184V55.9125H5.55469C2.49187 55.9125 0 58.4044 0 61.4672V68.6953C0 70.5175 1.48247 72 3.30469 72H17.5829C18.1654 72 18.6376 71.5279 18.6376 70.9453C18.6376 70.3627 18.1654 69.8906 17.5829 69.8906H11.4245C11.4252 69.867 11.428 69.8441 11.428 69.8203V59.2172C11.428 57.7343 10.4462 56.4764 9.09844 56.0595V46.3733H45.5396ZM51.2532 26.6812C51.2532 27.3842 50.6812 27.9561 49.9781 27.9561H48.7031V20.7467H49.9809C50.6827 20.7482 51.253 21.3195 51.253 22.0216V26.6812H51.2532ZM42.9891 4.43883C45.619 4.43883 47.7586 6.57858 47.7586 9.20855V13.9781H45.2087V12.7032C45.2087 12.1206 44.7365 11.6485 44.154 11.6485C43.5715 11.6485 43.0993 12.1206 43.0993 12.7032V13.9781H39.9669V4.43883H42.9891ZM34.1425 2.17969C34.1425 2.14102 34.174 2.10938 34.2128 2.10938H37.7871C37.8259 2.10938 37.8574 2.14102 37.8574 2.17969V13.9781H34.1425V2.17969ZM24.2414 9.20855C24.2414 6.57858 26.381 4.43883 29.0111 4.43883H32.0333V13.9781H28.9008V12.7032C28.9008 12.1206 28.4286 11.6485 27.8461 11.6485C27.2637 11.6485 26.7915 12.1206 26.7915 12.7032V13.9781H24.2416L24.2414 9.20855ZM20.747 17.3625C20.747 16.6596 21.3189 16.0876 22.0219 16.0876H49.9781C50.6812 16.0876 51.2532 16.6596 51.2532 17.3625V18.5273C51.2532 18.5881 51.2037 18.6375 51.1431 18.6375H20.8571C20.7963 18.6375 20.747 18.588 20.747 18.5273V17.3625ZM20.747 26.6812V22.0219C20.747 21.3189 21.3189 20.747 22.0219 20.747H23.2969L23.2971 27.9565H22.0219C21.3189 27.9564 20.747 27.3843 20.747 26.6812ZM25.4064 29.0115L25.4063 20.747H46.5937V29.0115C46.5937 34.8528 41.8414 39.6051 36 39.6051C30.1586 39.6051 25.4064 34.8528 25.4064 29.0115ZM30.0655 40.24C31.8379 41.1805 33.8577 41.7144 36.0001 41.7144C38.1424 41.7144 40.1621 41.1806 41.9344 40.2403V44.264H30.0656V40.24H30.0655ZM12.7031 41.714H18.5275C18.5882 41.714 18.6376 41.7635 18.6376 41.8241V44.264H9.25622C9.70833 42.7894 11.0824 41.714 12.7031 41.714ZM9.3188 60.5718H5.7143C5.13183 60.5718 4.65961 61.0439 4.65961 61.6265C4.65961 62.2091 5.13183 62.6812 5.7143 62.6812H9.3188V65.2312H5.7143C5.13183 65.2312 4.65961 65.7032 4.65961 66.2858C4.65961 66.8685 5.13183 67.3405 5.7143 67.3405H9.3188V69.8203C9.3188 69.859 9.2873 69.8906 9.24848 69.8906H9.20869H3.30469C2.64558 69.8906 2.10938 69.3543 2.10938 68.6953V61.4672C2.10938 59.5673 3.65498 58.0219 5.55469 58.0219H8.12348C8.78259 58.0219 9.3188 58.5581 9.3188 59.2172V60.5718Z" fill="#274052"/>
</svg>
