<svg width="72" height="72" viewBox="0 0 72 72" fill="none" xmlns="http://www.w3.org/2000/svg">
<path d="M54.5454 8.28972C54.9371 7.898 54.9371 7.26289 54.5454 6.87117C54.1537 6.47945 53.5185 6.47945 53.1268 6.87117C52.7351 7.26289 52.7351 7.898 53.1268 8.28972C53.5185 8.68144 54.1536 8.68144 54.5454 8.28972Z" fill="#FD4A4A"/>
<path d="M63.6726 13.758C65.3834 13.758 66.7753 12.3661 66.7753 10.6553V3.10275C66.7753 1.39191 65.3834 0 63.6726 0H59.8616C59.2904 0 58.8273 0.463078 58.8273 1.0343C58.8273 1.60552 59.2904 2.06859 59.8616 2.06859H63.6726C64.2429 2.06859 64.7069 2.53252 64.7069 3.10289V10.6554C64.7069 11.2258 64.2429 11.6897 63.6726 11.6897H43.3711V2.06845H55.1428C55.714 2.06845 56.1771 1.60537 56.1771 1.03416C56.1771 0.462938 55.7139 0 55.1428 0H21.0012C19.2903 0 17.8984 1.39191 17.8984 3.10275V11.7084H9.10275C7.39191 11.7084 6 13.1003 6 14.8112V22.3637C6 24.0746 7.39191 25.4665 9.10275 25.4665H17.8984V34.0722C17.8984 35.783 19.2903 37.1749 21.0012 37.1749H28.6139C28.0154 39.9023 28.5349 42.81 30.167 45.2123C32.0977 48.0542 35.3017 49.7509 38.7374 49.7509H42.8748V51.6468H41.9145C40.9183 51.6468 40.1077 52.4573 40.1077 53.4535C40.1044 54.8099 40.1972 56.6864 39.7447 57.9336C39.0382 60.1336 39.0382 62.9812 39.7447 65.1812C39.9855 65.9451 40.1077 66.7785 40.1077 67.6582V70.1933C40.1077 71.1894 40.9183 72 41.9145 72H45.9037C46.8999 72 47.7105 71.1894 47.7105 70.1933V67.6582C47.7105 67.0926 47.7614 66.5414 47.8619 66.0199C47.9701 65.459 47.6031 64.9167 47.0422 64.8086C46.4816 64.7 45.939 65.0675 45.8309 65.6283C45.7055 66.2785 45.6419 66.9615 45.6419 67.6582V69.9314H42.1762V67.6582C42.1762 66.5671 42.0218 65.5244 41.7172 64.5588C41.138 62.7597 41.138 60.3551 41.7172 58.556C42.0218 57.5906 42.1762 56.5477 42.1762 55.4566V53.7152H45.6419V55.4566C45.6419 56.548 45.7963 57.5909 46.1009 58.5561C46.3864 59.4605 46.5371 60.4983 46.5371 61.5573C46.5371 62.1285 47.0002 62.5916 47.5714 62.5916C48.1426 62.5916 48.6057 62.1285 48.6057 61.5573C48.6057 60.2897 48.4216 59.0366 48.0736 57.9336C47.6213 56.6913 47.7134 54.8047 47.7105 53.4534C47.7105 52.4572 46.8999 51.6466 45.9037 51.6466H44.9434V49.7507H49.0809C52.5166 49.7507 55.7205 48.0541 57.6513 45.2122C59.2834 42.8099 59.8028 39.9022 59.2043 37.1748H63.6726C65.3834 37.1748 66.7753 35.7829 66.7753 34.072V26.5195C66.7753 24.8086 65.3834 23.4167 63.6726 23.4167H54.8769V13.758H63.6726ZM19.9669 3.10275C19.9669 2.53237 20.4308 2.06845 21.0012 2.06845H41.3026V11.6895H19.9669V3.10275ZM8.06859 22.3637V14.8112C8.06859 14.2408 8.53252 13.7769 9.10289 13.7769H29.4042V23.3979H9.10275C8.53252 23.398 8.06859 22.9341 8.06859 22.3637ZM42.2644 47.6824L43.9091 41.1202L45.5539 47.6824H42.2644ZM55.9403 44.0498C54.395 46.3244 51.8307 47.6823 49.0807 47.6823H47.6863L45.6127 39.4083C45.4134 38.6132 44.7288 38.0791 43.9091 38.0791C43.0894 38.0791 42.4049 38.6132 42.2056 39.4083L40.1319 47.6823H38.7375C35.9877 47.6823 33.4234 46.3244 31.878 44.0498C30.002 41.2886 29.9605 37.6928 31.7721 34.8891L32.9484 33.0685C33.2583 32.5887 33.1208 31.9486 32.641 31.6385C32.1614 31.3286 31.521 31.4661 31.211 31.9459L30.0346 33.7665C29.7549 34.1993 29.511 34.6472 29.302 35.1065H21.001C20.4307 35.1065 19.9667 34.6424 19.9667 34.0722V25.4855H35.3853L33.6628 28.1514C33.3528 28.6313 33.4904 29.2714 33.9702 29.5815C34.4497 29.8914 35.0901 29.7537 35.4002 29.274L43.6194 16.5535C43.8143 16.3306 44.0038 16.3305 44.1987 16.5535L56.046 34.8891C57.8386 37.6415 57.8299 41.2869 55.9403 44.0498ZM64.7067 26.5196V34.0722C64.7067 34.6425 64.2428 35.1065 63.6724 35.1065H58.516C58.307 34.6473 58.0629 34.1993 57.7833 33.7665L52.4327 25.4855H63.6726C64.2428 25.4855 64.7067 25.9494 64.7067 26.5196ZM51.0962 23.4169L45.9361 15.4308C45.4896 14.7398 44.7318 14.3273 43.9091 14.3273C43.0865 14.3273 42.3286 14.7398 41.8822 15.4308L36.7221 23.4169H31.4728V13.777H52.8084V23.4169H51.0962Z" fill="#274052"/>
<path d="M15.6014 15.7939H11.9174C11.3461 15.7939 10.8831 16.257 10.8831 16.8282C10.8831 17.3994 11.3461 17.8625 11.9174 17.8625H15.6014C16.1727 17.8625 16.6357 17.3994 16.6357 16.8282C16.6357 16.257 16.1727 15.7939 15.6014 15.7939Z" fill="#FD4A4A"/>
<path d="M58.4078 30.0206H62.0921C62.6633 30.0206 63.1264 29.5575 63.1264 28.9863C63.1264 28.415 62.6633 27.952 62.0921 27.952H58.4078C57.8366 27.952 57.3735 28.415 57.3735 28.9863C57.3735 29.5575 57.8366 30.0206 58.4078 30.0206Z" fill="#FD4A4A"/>
<path d="M21.6716 19.6024H20.0364C19.4652 19.6024 19.0021 20.0654 19.0021 20.6367C19.0021 21.2079 19.4652 21.671 20.0364 21.671H21.6716C22.2428 21.671 22.7059 21.2079 22.7059 20.6367C22.7059 20.0654 22.2428 19.6024 21.6716 19.6024Z" fill="#FD4A4A"/>
<path d="M48.1641 6.5412C47.5928 6.5412 47.1298 7.00428 47.1298 7.5755C47.1298 8.14671 47.5928 8.60979 48.1641 8.60979H49.7992C50.3705 8.60979 50.8335 8.14671 50.8335 7.5755C50.8335 7.00428 50.3705 6.5412 49.7992 6.5412H48.1641Z" fill="#FD4A4A"/>
</svg>
