<svg width="72" height="72" viewBox="0 0 72 72" fill="none" xmlns="http://www.w3.org/2000/svg">
<g clip-path="url(#clip0)">
<path d="M69.8203 58.2431H25.3623C24.8532 52.0781 19.923 47.1479 13.7579 46.6387V2.18066C13.7579 0.978742 12.7801 0.000976562 11.5782 0.000976562H2.17969C0.977766 0.000976562 0 0.978742 0 2.18066V12.9239C0 13.5065 0.472219 13.9785 1.05469 13.9785C1.63716 13.9785 2.10938 13.5065 2.10938 12.9239V2.18066C2.10938 2.14199 2.14088 2.11035 2.17969 2.11035H11.5782C11.617 2.11035 11.6485 2.14199 11.6485 2.18066V4.66045H8.04375C7.46128 4.66045 6.98906 5.13252 6.98906 5.71513C6.98906 6.29774 7.46128 6.76982 8.04375 6.76982H11.6484V9.31963H10.4098C9.8273 9.31963 9.35508 9.79171 9.35508 10.3743C9.35508 10.9569 9.8273 11.429 10.4098 11.429H11.6484V13.9788H8.04375C7.46128 13.9788 6.98906 14.4509 6.98906 15.0335C6.98906 15.6161 7.46128 16.0882 8.04375 16.0882H11.6484V18.638H10.4098C9.8273 18.638 9.35508 19.1101 9.35508 19.6927C9.35508 20.2753 9.8273 20.7474 10.4098 20.7474H11.6484V23.2971H8.04375C7.46128 23.2971 6.98906 23.7691 6.98906 24.3517C6.98906 24.9344 7.46128 25.4064 8.04375 25.4064H11.6484V27.9562H10.4098C9.8273 27.9562 9.35508 28.4283 9.35508 29.0109C9.35508 29.5935 9.8273 30.0656 10.4098 30.0656H11.6484V32.6163H8.04375C7.46128 32.6163 6.98906 33.0884 6.98906 33.671C6.98906 34.2536 7.46128 34.7256 8.04375 34.7256H11.6484V37.2753H10.4098C9.8273 37.2753 9.35508 37.7474 9.35508 38.33C9.35508 38.9126 9.8273 39.3847 10.4098 39.3847H11.6484V41.9352H8.04375C7.46128 41.9352 6.98906 42.4073 6.98906 42.9899C6.98906 43.5725 7.46128 44.0446 8.04375 44.0446H11.6484V46.5948H2.10938V17.1425C2.10938 16.5599 1.63716 16.0878 1.05469 16.0878C0.472219 16.0878 0 16.5599 0 17.1425V68.6166C0 70.4826 1.51833 72.0008 3.38442 72.0008H24.3516H69.8203C71.0222 72.0008 72 71.0231 72 69.8211V60.4228C72 59.2208 71.0222 58.2431 69.8203 58.2431ZM2.10938 68.6166V48.7039H12.7032C18.5446 48.7039 23.2969 53.4562 23.2969 59.2976V59.2978V69.8915H3.38442C2.68144 69.8915 2.10938 69.3195 2.10938 68.6166ZM69.8906 69.8211C69.8906 69.8598 69.8591 69.8915 69.8203 69.8915H25.4063V60.3524H27.9564V63.9571C27.9564 64.5397 28.4286 65.0118 29.0111 65.0118C29.5935 65.0118 30.0658 64.5397 30.0658 63.9571V60.3524H32.6156V61.5911C32.6156 62.1737 33.0878 62.6458 33.6703 62.6458C34.2527 62.6458 34.725 62.1737 34.725 61.5911V60.3524H37.2746V63.9571C37.2746 64.5397 37.7468 65.0118 38.3293 65.0118C38.9118 65.0118 39.384 64.5397 39.384 63.9571V60.3524H41.9338V61.5911C41.9338 62.1737 42.406 62.6458 42.9885 62.6458C43.571 62.6458 44.0432 62.1737 44.0432 61.5911V60.3524H46.5929V63.9571C46.5929 64.5397 47.0651 65.0118 47.6475 65.0118C48.23 65.0118 48.7022 64.5397 48.7022 63.9571V60.3524H51.252V61.5911C51.252 62.1737 51.7243 62.6458 52.3067 62.6458C52.8892 62.6458 53.3614 62.1737 53.3614 61.5911V60.3524H55.9121V63.9571C55.9121 64.5397 56.3843 65.0118 56.9668 65.0118C57.5492 65.0118 58.0215 64.5397 58.0215 63.9571V60.3524H60.571V61.5911C60.571 62.1737 61.0432 62.6458 61.6257 62.6458C62.2081 62.6458 62.6804 62.1737 62.6804 61.5911V60.3524H65.2309V63.9571C65.2309 64.5397 65.7031 65.0118 66.2856 65.0118C66.868 65.0118 67.3403 64.5397 67.3403 63.9571V60.3524H69.8203C69.8591 60.3524 69.8906 60.3841 69.8906 60.4228V69.8211Z" fill="#274052"/>
<path d="M12.7032 55.9125C10.837 55.9125 9.31891 57.4307 9.31891 59.2968C9.31891 61.163 10.8371 62.6811 12.7032 62.6811C14.5693 62.6811 16.0875 61.1629 16.0875 59.2968C16.0875 57.4307 14.5693 55.9125 12.7032 55.9125ZM12.7032 60.5717C12.0002 60.5717 11.4283 59.9998 11.4283 59.2968C11.4283 58.5938 12.0002 58.0219 12.7032 58.0219C13.4062 58.0219 13.9781 58.5938 13.9781 59.2968C13.9781 59.9998 13.4062 60.5717 12.7032 60.5717Z" fill="#FD4A4A"/>
<path d="M12.7032 51.2532C8.26792 51.2532 4.65948 54.8615 4.65948 59.2968C4.65948 63.7321 8.26792 67.3405 12.7032 67.3405C17.1385 67.3405 20.747 63.7321 20.747 59.2968C20.7468 54.8615 17.1385 51.2532 12.7032 51.2532ZM12.7032 65.2312C9.43103 65.2312 6.76886 62.569 6.76886 59.2968C6.76886 56.0247 9.43103 53.3625 12.7032 53.3625C15.9754 53.3625 18.6376 56.0247 18.6376 59.2968C18.6375 62.569 15.9754 65.2312 12.7032 65.2312Z" fill="#FD4A4A"/>
<path d="M30.2153 20.1945C30.4644 20.1945 30.7146 20.1067 30.9156 19.928L33.9316 17.2473C34.3669 16.8603 34.4062 16.1937 34.0192 15.7583C33.6322 15.3229 32.9655 15.2834 32.5302 15.6707L29.5141 18.3516C29.0787 18.7386 29.0396 19.4051 29.4266 19.8405C29.6349 20.0749 29.9243 20.1945 30.2153 20.1945Z" fill="#FD4A4A"/>
<path d="M36.7793 14.3596C37.0285 14.3596 37.2787 14.2719 37.4796 14.0933L40.4956 11.4124C40.931 11.0254 40.9701 10.3589 40.5831 9.92348C40.1961 9.4881 39.5294 9.44859 39.0941 9.83587L36.0782 12.5166C35.6428 12.9036 35.6037 13.5702 35.9905 14.0055C36.1989 14.2401 36.4884 14.3596 36.7793 14.3596Z" fill="#FD4A4A"/>
<path d="M24.3516 25.4063H26.827C27.4095 25.4063 27.8817 24.9342 27.8817 24.3516C27.8817 23.8487 27.5297 23.428 27.0586 23.3225C27.3406 22.9306 27.3241 22.3823 26.99 22.0065C26.603 21.5712 25.9364 21.5315 25.501 21.9189L23.651 23.5634C23.3237 23.8542 23.2103 24.3171 23.3659 24.7265C23.5213 25.1357 23.9137 25.4063 24.3516 25.4063Z" fill="#FD4A4A"/>
<path d="M38.115 24.3516C38.115 23.769 37.6427 23.2969 37.0603 23.2969H32.4468C31.8643 23.2969 31.3921 23.769 31.3921 24.3516C31.3921 24.9342 31.8643 25.4063 32.4468 25.4063H37.0603C37.6427 25.4063 38.115 24.9342 38.115 24.3516Z" fill="#FD4A4A"/>
<path d="M42.261 51.0328H44.2641V53.5828H42.9891C42.4066 53.5828 41.9344 54.0548 41.9344 54.6375C41.9344 55.2201 42.4066 55.6921 42.9891 55.6921H47.6484C48.2309 55.6921 48.7031 55.2201 48.7031 54.6375C48.7031 54.0548 48.2309 53.5828 47.6484 53.5828H46.3733V51.0328H51.3631C51.9456 51.0328 52.4178 50.5607 52.4178 49.9781C52.4178 49.3955 51.9456 48.9234 51.3631 48.9234H46.3733V25.4063H60.5718V48.9234H55.582C54.9996 48.9234 54.5273 49.3955 54.5273 49.9781C54.5273 50.5607 54.9996 51.0328 55.582 51.0328H61.6265C62.209 51.0328 62.6812 50.5607 62.6812 49.9781V25.4063H66.2858C66.7237 25.4063 67.1161 25.1357 67.2716 24.7264C67.4273 24.3172 67.3138 23.8542 66.9866 23.5633L46.3735 5.24039V2.10938H47.6484C48.2309 2.10938 48.7031 1.6373 48.7031 1.05469C48.7031 0.472078 48.2309 0 47.6484 0H42.9891C42.4066 0 41.9344 0.472078 41.9344 1.05469C41.9344 1.6373 42.4066 2.10938 42.9891 2.10938H44.2641V5.24025L42.768 6.57014C42.3326 6.95714 42.2934 7.6237 42.6805 8.05908C42.8889 8.29364 43.1783 8.41303 43.4692 8.41303C43.7183 8.41303 43.9685 8.32514 44.1695 8.14655L44.2641 8.06231V23.2966H42.8435C42.261 23.2966 41.7888 23.7687 41.7888 24.3513C41.7888 24.9339 42.261 25.406 42.8435 25.406H44.2641V48.9234H42.261C41.6786 48.9234 41.2064 49.3955 41.2064 49.9781C41.2064 50.5607 41.6786 51.0328 42.261 51.0328ZM63.5119 23.2969H46.3735V8.06273L63.5119 23.2969Z" fill="#274052"/>
<path d="M35.72 51.0328H38.7158C39.2983 51.0328 39.7705 50.5607 39.7705 49.9781C39.7705 49.3955 39.2983 48.9234 38.7158 48.9234H35.72C35.1375 48.9234 34.6653 49.3955 34.6653 49.9781C34.6653 50.5607 35.1374 51.0328 35.72 51.0328Z" fill="#FD4A4A"/>
<path d="M29.0109 51.0328H32.0687C32.6511 51.0328 33.1234 50.5607 33.1234 49.9781C33.1234 49.3955 32.6511 48.9234 32.0687 48.9234H30.0656V46.9203C30.0656 46.3377 29.5934 45.8657 29.0109 45.8657C28.4285 45.8657 27.9562 46.3377 27.9562 46.9203V49.9781C27.9562 50.5607 28.4285 51.0328 29.0109 51.0328Z" fill="#FD4A4A"/>
<path d="M29.0109 42.404C29.5934 42.404 30.0656 41.932 30.0656 41.3493V36.6414C30.0656 36.0587 29.5934 35.5867 29.0109 35.5867C28.4285 35.5867 27.9562 36.0587 27.9562 36.6414V41.3493C27.9562 41.932 28.4285 42.404 29.0109 42.404Z" fill="#FD4A4A"/>
<path d="M29.0109 31.9586C29.5934 31.9586 30.0656 31.4866 30.0656 30.9039V27.8462C30.0656 27.2636 29.5934 26.7915 29.0109 26.7915C28.4285 26.7915 27.9562 27.2636 27.9562 27.8462V30.9039C27.9562 31.4864 28.4285 31.9586 29.0109 31.9586Z" fill="#FD4A4A"/>
</g>
<defs>
<clipPath id="clip0">
<rect width="72" height="72" fill="white"/>
</clipPath>
</defs>
</svg>
