<svg width="179" height="53" viewBox="0 0 179 53" fill="none" xmlns="http://www.w3.org/2000/svg">
<path d="M51.095 39.245C49.135 39.245 47.3733 38.8367 45.81 38.02C44.27 37.2033 43.0567 36.0367 42.17 34.52C41.2833 33.0033 40.84 31.2183 40.84 29.165C40.84 27.135 41.2833 25.3617 42.17 23.845C43.08 22.3283 44.305 21.1617 45.845 20.345C47.4083 19.5283 49.17 19.12 51.13 19.12C53.09 19.12 54.84 19.5283 56.38 20.345C57.9433 21.1617 59.1683 22.3283 60.055 23.845C60.965 25.3617 61.42 27.135 61.42 29.165C61.42 31.195 60.965 32.98 60.055 34.52C59.1683 36.0367 57.9433 37.2033 56.38 38.02C54.8167 38.8367 53.055 39.245 51.095 39.245ZM51.095 33.295C52.0517 33.295 52.845 32.945 53.475 32.245C54.1283 31.5217 54.455 30.495 54.455 29.165C54.455 27.835 54.1283 26.82 53.475 26.12C52.845 25.42 52.0633 25.07 51.13 25.07C50.1967 25.07 49.415 25.42 48.785 26.12C48.155 26.82 47.84 27.835 47.84 29.165C47.84 30.5183 48.1433 31.545 48.75 32.245C49.3567 32.945 50.1383 33.295 51.095 33.295ZM82.971 28.955C82.971 29.4917 82.936 30.0283 82.866 30.565H69.881C69.951 31.6383 70.2426 32.4433 70.756 32.98C71.2926 33.4933 71.9693 33.75 72.786 33.75C73.9293 33.75 74.746 33.2367 75.236 32.21H82.551C82.2476 33.5633 81.6526 34.7767 80.766 35.85C79.9026 36.9 78.806 37.7283 77.476 38.335C76.146 38.9417 74.676 39.245 73.066 39.245C71.1293 39.245 69.4026 38.8367 67.886 38.02C66.3926 37.2033 65.2143 36.0367 64.351 34.52C63.511 33.0033 63.091 31.2183 63.091 29.165C63.091 27.1117 63.511 25.3383 64.351 23.845C65.191 22.3283 66.3576 21.1617 67.851 20.345C69.3676 19.5283 71.106 19.12 73.066 19.12C75.0026 19.12 76.7176 19.5167 78.211 20.31C79.7043 21.1033 80.871 22.2467 81.711 23.74C82.551 25.21 82.971 26.9483 82.971 28.955ZM75.971 27.24C75.971 26.4 75.691 25.7467 75.131 25.28C74.571 24.79 73.871 24.545 73.031 24.545C72.191 24.545 71.5026 24.7783 70.966 25.245C70.4293 25.6883 70.0793 26.3533 69.916 27.24H75.971ZM98.0634 39L92.6384 30.95V39H85.7784V13.1H92.6384V27.065L98.0634 19.365H106.288L98.5534 29.235L106.428 39H98.0634ZM107.319 29.165C107.319 27.135 107.681 25.3617 108.404 23.845C109.151 22.3283 110.154 21.1617 111.414 20.345C112.698 19.5283 114.121 19.12 115.684 19.12C117.038 19.12 118.204 19.3883 119.184 19.925C120.164 20.4617 120.923 21.185 121.459 22.095V19.365H128.319V39H121.459V36.27C120.923 37.18 120.153 37.9033 119.149 38.44C118.169 38.9767 117.014 39.245 115.684 39.245C114.121 39.245 112.698 38.8367 111.414 38.02C110.154 37.2033 109.151 36.0367 108.404 34.52C107.681 32.98 107.319 31.195 107.319 29.165ZM121.459 29.165C121.459 27.905 121.109 26.9133 120.409 26.19C119.733 25.4667 118.893 25.105 117.889 25.105C116.863 25.105 116.011 25.4667 115.334 26.19C114.658 26.89 114.319 27.8817 114.319 29.165C114.319 30.425 114.658 31.4283 115.334 32.175C116.011 32.8983 116.863 33.26 117.889 33.26C118.893 33.26 119.733 32.8983 120.409 32.175C121.109 31.4517 121.459 30.4483 121.459 29.165ZM145.074 19.19C147.337 19.19 149.134 19.9483 150.464 21.465C151.794 22.9583 152.459 24.9883 152.459 27.555V39H145.599V28.465C145.599 27.345 145.307 26.47 144.724 25.84C144.14 25.1867 143.359 24.86 142.379 24.86C141.352 24.86 140.547 25.1867 139.964 25.84C139.38 26.47 139.089 27.345 139.089 28.465V39H132.229V19.365H139.089V22.165C139.695 21.2783 140.512 20.5667 141.539 20.03C142.565 19.47 143.744 19.19 145.074 19.19ZM163.468 19.12C164.798 19.12 165.953 19.3883 166.933 19.925C167.936 20.4617 168.706 21.185 169.243 22.095V19.365H176.103V38.79C176.103 40.6333 175.753 42.29 175.053 43.76C174.353 45.2533 173.256 46.4433 171.763 47.33C170.293 48.2167 168.426 48.66 166.163 48.66C163.129 48.66 160.703 47.9483 158.883 46.525C157.063 45.1017 156.024 43.165 155.768 40.715H162.523C162.663 41.345 163.013 41.835 163.573 42.185C164.133 42.535 164.856 42.71 165.743 42.71C168.076 42.71 169.243 41.4033 169.243 38.79V36.27C168.706 37.18 167.936 37.9033 166.933 38.44C165.953 38.9767 164.798 39.245 163.468 39.245C161.904 39.245 160.481 38.8367 159.198 38.02C157.938 37.2033 156.934 36.0367 156.188 34.52C155.464 32.98 155.103 31.195 155.103 29.165C155.103 27.135 155.464 25.3617 156.188 23.845C156.934 22.3283 157.938 21.1617 159.198 20.345C160.481 19.5283 161.904 19.12 163.468 19.12ZM169.243 29.165C169.243 27.905 168.893 26.9133 168.193 26.19C167.516 25.4667 166.676 25.105 165.673 25.105C164.646 25.105 163.794 25.4667 163.118 26.19C162.441 26.89 162.103 27.8817 162.103 29.165C162.103 30.425 162.441 31.4283 163.118 32.175C163.794 32.8983 164.646 33.26 165.673 33.26C166.676 33.26 167.516 32.8983 168.193 32.175C168.893 31.4517 169.243 30.4483 169.243 29.165Z" fill="#274052"/>
<rect y="3" width="37" height="37" fill="#FD4A4A"/>
<path d="M37 10V16.6383H29.414V40H21.5053V16.6383H14V10H37Z" fill="#274052"/>
</svg>
